<?xml version="1.0" standalone="no"?><!DOCTYPE svg PUBLIC "-//W3C//DTD SVG 1.0//EN" "http://www.w3.org/TR/2001/REC-SVG-20010904/DTD/svg10.dtd"><svg xmlns="http://www.w3.org/2000/svg" width="100%" height="100%">
<defs>
<font id="VolvoNovumWebCy-MediumItalic" horiz-adv-x="610"><font-face
    font-family="Volvo Novum Web Cy Medium Italic"
    units-per-em="1000"
    panose-1="2 11 6 3 4 5 2 13 2 4"
    ascent="980"
    descent="-220"
    alphabetic="0" />
<missing-glyph horiz-adv-x="1090"/>
<glyph unicode="" glyph-name="nonmarkingreturn" horiz-adv-x="259"/>
<glyph unicode=" " glyph-name="space" horiz-adv-x="254"/>
<glyph unicode="A" glyph-name="A" horiz-adv-x="682" d="M529 682L609 0H466L451 154H190L100 0H-48L373 682H529ZM424 572h-1q-28-56-48.5-93T320 383L244 252H445l-9 119q-7 68-10 109.5T424 572h0Z"/>
<glyph unicode="a" glyph-name="a" horiz-adv-x="538" d="M348 221q-55 0-93.5-5t-63-14.5-38-24T135 142q-7-31 8-48t52-17q32 0 63.5 17t54 45.5T342 199l6 22Zm123 13q-17-70-30.5-125.5T415 0H304l16 60h-1Q284 23 241.5 4.5T148-14Q69-14 31 30.5T10 145q10 41 36 70.5t69 49 106 29T368 303l6 23q8 30 0.5 49.5t-27 29T297 414q-40 0-80.5-17T131 343L88 419q55 43 114 64.5T325 505q66 0 109.5-22t59-64 0.5-98l-23-87Z"/>
<glyph unicode="B" glyph-name="B" horiz-adv-x="719" d="M199 682q41 1 119 1.5T456 684q99 0 154.5-17T694 613q16-22 20-50.5T710 502q-14-56-50.5-92.5T560 353q60-15 85.5-59T655 188q-17-67-59-109T484 17.5 298-2Q220-2 156.5-1.5T29 0L199 682Zm59-285H394q57 0 87.5 7T534 428q15 13 24.5 28.5T573 492q9 36-7 58-14 19-42.5 25T424 581q-25 0-58-0.5T303 579L258 397ZM184 103q68-2 94-2t49 0q65 0 102.5 10t60 31T520 197q9 36-1.5 58.5t-40 32.5T385 298H233L184 103Z"/>
<glyph unicode="b" glyph-name="b" horiz-adv-x="598" d="M190 236q-12-47-6-82.5T212 100t57-18q37 0 70 20.5T396 160t35 86q13 48 8 85t-26.5 57.5T353 409q-36 0-68.5-20t-56-55T194 254l-4-18Zm0 470H310L264 524q-16-62-30-95h2q34 38 75.5 57T401 505q66 0 108-35t54.5-96T557 238q-19-77-59.5-134T400 16.5 275-14q-50 0-86.5 20T138 61h-1L118 0H5Q31 82 46.5 137.5T75 246L190 706Z"/>
<glyph unicode="C" glyph-name="C" horiz-adv-x="704" d="M658 189Q606 88 521.5 36T324-16q-98 0-164 46.5T72 161t5 189q26 107 84 185T302.5 655.5 480 698q103 0 170.5-53T729 500L601 461q-9 62-43.5 93T464 585q-56 0-107.5-31t-89-86T212 340t-8-127.5 46.5-84T347 99q64 0 115 35t91 107l105-52Z"/>
<glyph unicode="c" glyph-name="c" horiz-adv-x="533" d="M475 127Q429 56 367.5 21T227-14q-74 0-123 34T39 115t4 139 61 134.5T205.5 475 337 505q85 0 135.5-38T534 359L417 326q-8 43-29.5 62T325 407q-35 0-66-19t-54.5-56T168 245q-12-48-7-85t27-57 58-20q44 0 78.5 24.5T390 182l85-55Z"/>
<glyph unicode="D" glyph-name="D" horiz-adv-x="742" d="M199 682q42 1 109 1.5T423 684q92 0 153.5-21.5T675 597q34-41 46-98t1-123q-11-81-48-154.5T577 95Q520 45 447 21.5T269-2Q222-2 152-1.5T29 0L199 682ZM185 107q32-1 55.5-2t45.5-1q71 0 114.5 14.5T482 167q42 38 68.5 95.5T585 381q7 48 0 86.5T557 532q-22 25-56.5 35.5T399 578q-28 0-48-0.5T302 576L185 107Z"/>
<glyph unicode="d" glyph-name="d" horiz-adv-x="598" d="M354 0l14 65h-1Q333 26 291 6T199-14Q132-14 90 20.5T35.5 116 42 252q20 78 61 135.5T201 475t123 30q47 0 82-17.5T456 439h1q6 41 18 85l46 182H641L526 246q-17-67-30.5-123.5T467 0H354Zm56 254q11 45 6 80t-27 55-58 20q-37 0-69.5-20T205 332t-37-87q-13-49-8-86t27-57 59-20q35 0 67 19t56 54 36 82l5 17Z"/>
<glyph unicode="E" glyph-name="E" horiz-adv-x="651" d="M199 682H691L666 581H304L257 397H573l-24-98H233L184 102H564L538 0H29L199 682Z"/>
<glyph unicode="e" glyph-name="e" horiz-adv-x="563" d="M476 70Q427 28 366.5 7T242-14q-80 0-132.5 33t-69 94.5T44 255q19 78 62 135t104 86 135 29q55 0 96-17.5T506 436t30-80-7-98q-6-26-16-47H161q-7-41 2-71t35-46 66-16q46 0 89 17t80 50l43-75ZM411 294q8 36 0.5 64T383 400.5 331 415q-32 0-60.5-14t-51-41.5T182 294H411Z"/>
<glyph unicode="F" glyph-name="F" horiz-adv-x="603" d="M199 682H673L647 580H303L254 383H554L528 283H229L159 0H29L199 682Z"/>
<glyph unicode="f" glyph-name="f" horiz-adv-x="326" d="M31 0l99 396H50l24 94h79l21 87q11 48 35.5 78.5t61 45.5T355 716q25 0 52-3.5t45-9.5l-29-96q-16 6-34 9t-33 3q-17 0-29.5-6T305 594t-14-34l-18-70H381l-24-94H250L151 0H31Z"/>
<glyph unicode="&#xfb01;" glyph-name="fi" horiz-adv-x="605" d="M31 0l99 396H50l24 94h79l21 87q11 48 35.5 78.5t61 45.5T355 716q25 0 52-3.5t45-9.5l-29-96q-16 6-34 9t-33 3q-17 0-29.5-6T305 594t-14-34l-18-70H381l-24-94H250L151 0H31ZM489 557l35 137H645L612 557H489ZM351 0L474 490H594L471 0H351Z"/>
<glyph unicode="&#xfb02;" glyph-name="fl" horiz-adv-x="605" d="M31 0l99 396H50l24 94h79l21 87q11 48 35.5 78.5t61 45.5T355 716q25 0 52-3.5t45-9.5l-29-96q-16 6-34 9t-33 3q-17 0-29.5-6T305 594t-14-34l-18-70H381l-24-94H250L151 0H31ZM528 706H648L471 0H351L528 706Z"/>
<glyph unicode="G" glyph-name="G" horiz-adv-x="767" d="M516 0l22 83h-1Q490 32 435.5 8T314-16q-94 0-158.5 47t-85 130T76 348q27 107 87.5 186t146 121.5T494 698q98 0 164.5-39T754 548L634 478q-19 54-58.5 80.5T473 585q-60 0-113-31t-91.5-87.5T212 339q-19-74-8.5-129T252 125 352 95q76 0 135.5 48T565 266l3 10H406l25 98H722L628 0H516Z"/>
<glyph unicode="g" glyph-name="g" horiz-adv-x="599" d="M595 490q-6-17-25-81.5T526 245q-10-36-29.5-120T467 0q-17-69-53.5-114t-94-67.5T183-204q-67 0-121 19.5T-22-128L43-43q27-34 70-52t91-18q37 0 64 11.5t46 35T345-5l23 73h-2q-34-38-75.5-56.5T201-7Q135-7 93 25.5t-55.5 93T43 255t59.5 132.5 97.5 87T324 505q51 0 87-20t51-55h1l20 60H595ZM410 254q12 45 6.5 80.5t-27 55T331 409t-69.5-20.5-56.5-57T169 248q-12-48-6.5-85t28-56T248 88t67.5 19.5 57 55T408 243l2 11Z"/>
<glyph unicode="H" glyph-name="H" horiz-adv-x="763" d="M199 682H329L260 409H586l68 273H784L614 0H484l74 299H233L159 0H29L199 682Z"/>
<glyph unicode="h" glyph-name="h" horiz-adv-x="590" d="M190 706H310L264 524q-14-55-30-96h2q68 77 164 77 59 0 96.5-26t48-73.5T539 294L464 0H344l65 260q12 50 14 69.5T422 364q-6 22-23.5 33.5T351 409q-22 0-43.5-8T269 380q-27-21-45-54.5T193 241L133 0H13L190 706Z"/>
<glyph unicode="I" glyph-name="I" horiz-adv-x="308" d="M199 682H329L159 0H29L199 682Z"/>
<glyph unicode="i" glyph-name="i" horiz-adv-x="267" d="M151 557l35 137H307L274 557H151ZM13 0L136 490H256L133 0H13Z"/>
<glyph unicode="J" glyph-name="J" horiz-adv-x="556" d="M584 682L467 212Q439 100 370.5 42T190-16q-46 0-85 12.5t-66 41T1 111 1 222l134 22q-14-78 3-112t71-34q100 0 130 123L454 682H584Z"/>
<glyph unicode="j" glyph-name="j" horiz-adv-x="274" d="M263 490L136-16Q119-85 93.5-125.5T30.5-184-61-202q-32 0-56 8l23 91h37q21 0 34 9T0-63 22 6L143 490H263ZM158 557l34 137H314L280 557H158Z"/>
<glyph unicode="K" glyph-name="K" horiz-adv-x="698" d="M796 682L486 433 641 0H497L376 344 212 213 159 0H29L199 682H329L253 380 621 682H796Z"/>
<glyph unicode="k" glyph-name="k" horiz-adv-x="549" d="M190 706H310L207 299 442 490H602L376 313 496 0H362L276 233 171 151 133 0H13L190 706Z"/>
<glyph unicode="L" glyph-name="L" horiz-adv-x="561" d="M199 682H329L186 111H512L485 0H29L199 682Z"/>
<glyph unicode="l" glyph-name="l" horiz-adv-x="267" d="M190 706H310L133 0H13L190 706Z"/>
<glyph unicode="M" glyph-name="M" horiz-adv-x="959" d="M199 682H408l37-310q9-65 12.5-110t3.5-81h2q13 31 34.5 70T572 372L764 682H980L810 0H680l60 240q23 95 45.5 180.5T830 580h-5q-28-52-54.5-96.5T710 385L473 0H358L313 386q-12 86-15 123t-3 71h-4q-11-50-31-137T211 240L151 0H29L199 682Z"/>
<glyph unicode="m" glyph-name="m" horiz-adv-x="914" d="M668 0l66 261q12 49 13.5 67.5T746 364q-5 22-22.5 33.5T677 409q-21 0-42-8t-38-21q-28-22-45.5-55T521 241L460 0H341l65 261q12 49 14 67.5T418 364q-5 22-22.5 33.5T349 409q-21 0-41.5-7.5T269 380q-27-22-45-55t-31-84L133 0H13L73 241q17 68 31 127t28 122H245l-14-65h1q35 40 77 60t89 20q55 0 89.5-23T532 417q42 44 89.5 66T723 505q59 0 96-25.5t48-73T861 295L788 0H668Z"/>
<glyph unicode="N" glyph-name="N" horiz-adv-x="759" d="M461 0L332 366q-20 53-32 94.5T280 535h-3q-9-49-24.5-118T205 218L151 0H29L199 682H359L482 336q13-36 27-83.5T534 166h2q11 57 32 150t39 166l50 200H780L609 0H461Z"/>
<glyph unicode="n" glyph-name="n" horiz-adv-x="590" d="M345 0l64 260q13 50 15 69t-2 35q-6 22-23.5 33.5T351 409q-22 0-43.5-8T269 380q-27-22-45-54.5T193 241L133 0H13L73 241q17 67 30 123t29 126H246l-15-65h1q35 40 77 60t91 20q59 0 96.5-26t48-73.5T539 294L464 0H345Z"/>
<glyph unicode="O" glyph-name="O" horiz-adv-x="787" d="M760 334q-26-105-87-184.5T524.5 27 336-16Q234-16 165 30.5t-92 130T76 348q27 106 88.5 186t149 122T501 698q102 0 170.5-46T763 522.5 760 334h0Zm-136 7q19 73 7.5 128T581 554 479 584q-62 0-116-29.5T270 470 212 341q-17-72-6.5-127t50-85.5T358 98t117 30.5T568 214t56 127h0Z"/>
<glyph unicode="o" glyph-name="o" horiz-adv-x="584" d="M542 237q-19-78-62-135T374.5 15.5 236-14q-78 0-129 33.5t-68 94T43 253q19 78 62 135t105.5 87T349 505q78 0 129-33.5T546 377t-4-140h0Zm-125 8q12 48 6 84.5T394 386t-62 20-72-20-56.5-56.5T168 245t-6-84.5 29-56T253 85t72 19.5 56.5 56T417 245h0Z"/>
<glyph unicode="P" glyph-name="P" horiz-adv-x="666" d="M199 682q43 0 130.5 1T464 684q95 0 156-27.5t82-79T704 453q-18-72-60.5-119.5T531.5 263 362 240q-61 0-90 0t-53 1L159 0H29L199 682ZM568 461q10 40 0.5 65.5t-41 38T442 577q-60 0-87.5 0T303 576L245 347q24-1 51-1t86 0q54 0 92 12.5t61 38T568 461h0Z"/>
<glyph unicode="p" glyph-name="p" horiz-adv-x="598" d="M-35-192L75 246q13 53 26.5 110T132 490H246l-15-65h1q34 39 77 59.5T401 505q66 0 108-35t54.5-96T557 238q-19-78-60-135.5t-98-87T275-14q-46 0-81.5 17.5T143 51h-1q-4-31-18-85L85-192H-35ZM190 236q-12-47-6.5-82T211 100.5 269 82q37 0 70 20.5T396 160t35 86q13 50 7.5 87T411 389.5 353 409q-35 0-67-19t-56-54.5T194 254l-4-18Z"/>
<glyph unicode="Q" glyph-name="Q" horiz-adv-x="787" d="M760 334q-19-73-53-133T625 96l52-67L591-38 536 34Q444-16 336-16 234-16 165 30.5t-92 130T76 348q27 106 88.5 186t149 122T501 698q102 0 170.5-46T763 522.5 760 334ZM489 276l62-83q25 29 43.5 66.5T624 341q19 73 7.5 128T581 554 479 584q-62 0-116-29.5T270 470 212 341q-17-72-6.5-127t50-85.5T358 98q29 0 55.5 7.5T466 126l-63 84 86 66Z"/>
<glyph unicode="q" glyph-name="q" horiz-adv-x="598" d="M410 254q11 45 6 80t-27 55-58 20q-37 0-69.5-20T205 332t-37-87q-13-49-8-86t27-57 59-20q36 0 68.5 19.5t56 54.5T405 237l5 17ZM296-192L335-34q13 51 30 96h-1Q330 24 288 5T199-14Q132-14 90 20.5T35.5 116 42 252q20 78 61 135.5T201 475t123 30q51 0 87-20t50-55h1l20 60H594q-14-43-31-103.5T528 254L415-192H296Z"/>
<glyph unicode="R" glyph-name="R" horiz-adv-x="703" d="M199 682q37 0 132 1t136 1q88 0 148-27.5t81.5-78T700 458q-12-51-40.5-89.5T589 305t-97-36L619 0H472L359 253H221L159 0H29L199 682Zm49-323q23-1 53-1t86 0q50 0 86.5 12t59 37T565 470q9 37-0.5 60.5t-39.5 35T445 577q-64 0-143-1L248 359Z"/>
<glyph unicode="r" glyph-name="r" horiz-adv-x="379" d="M13 0L73 240q21 84 36.5 149.5T132 490H245l-19-88h1q38 51 83 76.5T407 504q15 0 26-2L403 383q-16 1-28 1-29 0-56-10t-51-29q-33-27-54-65T175 166L133 0H13Z"/>
<glyph unicode="S" glyph-name="S" horiz-adv-x="673" d="M85 187q51-49 110-73T321 90q41 0 71.5 9T442 127t26 46q7 26-2.5 45.5t-35 34.5-114 41.5T188 350.5t-52.5 73T138 526q14 54 51.5 93T285 678t130 20q80 0 143.5-20.5T666 618l-67-98q-40 37-89.5 55T403 593q-37 0-65-8.5T293.5 560 271 521q-7-25 3-44t34.5-33T421 404.5 550 349t54-75-3-107q-13-55-54-97T443.5 6 306-16q-90 0-162 26.5T17 90l68 97Z"/>
<glyph unicode="s" glyph-name="s" horiz-adv-x="510" d="M56 145q33-32 77.5-49.5T223 78q29 0 48.5 5t31 15.5T318 125q4 17-2.5 29.5T292 177t-77.5 30.5-89.5 43-38.5 54T88 379q10 40 38 68.5t73 43T305 505q57 0 106-15t79-40l-55-83q-27 23-65 35.5T294 415q-26 0-43.5-4.5t-28-13.5T209 374q-4-16 2.5-28.5t23-22 77.5-30T402 250t39-55-1-75q-10-43-39.5-73T323 1.5 211-14Q145-14 88 5.5T-4 60l60 85Z"/>
<glyph unicode="T" glyph-name="T" horiz-adv-x="538" d="M286 576H78l27 106H653L626 576H419L275 0H143L286 576Z"/>
<glyph unicode="t" glyph-name="t" horiz-adv-x="363" d="M131 396H53l24 94h77l38 152 128 25L274 490H398l-23-94H251L202 200q-11-44-14-62t-2-27.5T193 95q6-5 14-7.5T226 85q15 0 35.5 3.5T300 98L276 3Q256-5 231-9.5T181-14Q128-14 98.5 4.5T61.5 60 68 153q4 17 17 63.5T109 306l22 90Z"/>
<glyph unicode="U" glyph-name="U" horiz-adv-x="739" d="M220 273q-15-56-5.5-95.5t40.5-60T336 97q54 0 95 20.5t69 60T542 273L644 682H766L661 258q-21-87-68.5-149T475 15.5 315-16q-91 0-150 35.5t-78.5 102T89 272L192 682H322L220 273Z"/>
<glyph unicode="u" glyph-name="u" horiz-adv-x="585" d="M341 0l15 65h-1Q320 25 279.5 5.5T192-14q-59 0-96 25.5t-48 73T54 196l74 294H248L182 229q-12-46-14-66t2-36q5-23 21.5-34T236 82q21 0 43.5 8T318 111q27 22 45 55.5T395 253l59 237H574L514 250q-19-75-34.5-140.5T455 0H341Z"/>
<glyph unicode="V" glyph-name="V" horiz-adv-x="646" d="M187 0L114 682H253l30-345q7-78 9.5-124.5T293 128h3q16 35 43.5 86.5T410 338L606 682H751L337 0H187Z"/>
<glyph unicode="v" glyph-name="v" horiz-adv-x="515" d="M129 0L67 490H196l18-198q3-41 6-91t3-86h3q14 26 40.5 76T321 292L434 490H574L266 0H129Z"/>
<glyph unicode="W" glyph-name="W" horiz-adv-x="1057" d="M612 0L594 339q-1 13-2 65t2 98h-3q-12-29-29.5-65T511 339L325 0H161L134 682H276l1-296q0-36 1-107.5T277 130h3q19 42 52.5 107.5T413 387L571 682H706l12-297q6-96 7.5-161.5T725 130h3q36 75 64.5 132.5T853 384l150 298h140L776 0H612Z"/>
<glyph unicode="w" glyph-name="w" horiz-adv-x="828" d="M455 0L438 223q-1 36-1.5 64t0.5 55h-2q-13-30-27.5-59.5T377 223L253 0H118L76 490H201l14-220q1-27 3-69.5t1-80.5h2q7 13 29 60.5T296 272L416 490H531l12-215q1-28 3-74.5t2-80.5h2q27 55 45.5 91.5T627 274L743 490H876L589 0H455Z"/>
<glyph unicode="X" glyph-name="X" horiz-adv-x="622" d="M415 0L317 264 90 0H-62L260 362 129 682H278l84-230L556 682H708L419 354 564 0H415Z"/>
<glyph unicode="x" glyph-name="x" horiz-adv-x="510" d="M215 490l65-149L405 490H548L334 252 449 0H309L234 174 90 0H-60L179 264 75 490H215Z"/>
<glyph unicode="Y" glyph-name="Y" horiz-adv-x="634" d="M192 0l69 280L110 682H260l96-273L585 682H744L392 281 322 0H192Z"/>
<glyph unicode="y" glyph-name="y" horiz-adv-x="515" d="M5-192L130-16 67 490H195l18-198q4-41 7-90t2-85h2q22 43 45.5 85.5T320 292L434 490H574L146-192H5Z"/>
<glyph unicode="Z" glyph-name="Z" horiz-adv-x="628" d="M530 0H-22L4 108 483 577q-31 0-105.5-1T268 575H136l27 107H685L658 576 180 107q37 0 122.5 0.5T425 108H557L530 0Z"/>
<glyph unicode="z" glyph-name="z" horiz-adv-x="515" d="M409 0H-15L9 97 333 397q-64-1-149-2H94l25 95H519l-25-95L171 96q87 1 168 1h95L409 0Z"/>
<glyph unicode="&#x394;" glyph-name="Delta" horiz-adv-x="680" d="M143 102H468L438 383q-9 79-12.5 119.5T422 572h-3q-15-31-39.5-73.5T310 384L143 102ZM583 0H-24L-1 94 371 682H530L607 95 583 0Z"/>
<glyph unicode="&#x3bc;" glyph-name="mu" horiz-adv-x="594" d="M-35-192L136 490H256L191 229q-12-47-14.5-66.5T178 127q5-23 22-34t44-11q22 0 44 8t39 21q27 22 44.5 54T403 252l60 238H583L522 249q-20-77-35-141T463 0H350l15 65h-1Q334 28 293 7.5T208-13q-26 0-47.5 8.5T130 18h-1q-8-57-15-89L89-192H-35Z"/>
<glyph unicode="&#x3a9;" glyph-name="Omega" horiz-adv-x="796" d="M-2 0L23 106H87q55 0 103-2v2q-67 50-89 123t1 166q23 91 81 160T325.5 661 508 698q99 0 166-41t91.5-114.5T767 378q-21-87-76-152.5T540 106v-2q56 2 102 2h63L679 0H393l35 145q85 43 133.5 98T629 374q15 61 3 109.5t-50.5 75T484 585q-60 0-110.5-26t-87-74T234 374q-19-76 2-131.5T319 145L284 0H-2Z"/>
<glyph unicode="&#x410;" glyph-name="uni0410" horiz-adv-x="682" d="M529 682L609 0H466L451 154H190L100 0H-48L373 682H529ZM424 572h-1q-28-56-48.5-93T320 383L244 252H445l-9 119q-7 68-10 109.5T424 572h0Z"/>
<glyph unicode="&#x430;" glyph-name="uni0430" horiz-adv-x="538" d="M348 221q-55 0-93.5-5t-63-14.5-38-24T135 142q-7-31 8-48t52-17q32 0 63.5 17t54 45.5T342 199l6 22Zm123 13q-17-70-30.5-125.5T415 0H304l16 60h-1Q284 23 241.5 4.5T148-14Q69-14 31 30.5T10 145q10 41 36 70.5t69 49 106 29T368 303l6 23q8 30 0.5 49.5t-27 29T297 414q-40 0-80.5-17T131 343L88 419q55 43 114 64.5T325 505q66 0 109.5-22t59-64 0.5-98l-23-87Z"/>
<glyph unicode="&#x4d2;" glyph-name="uni04D2" horiz-adv-x="682" d="M529 682L609 0H466L451 154H190L100 0H-48L373 682H529ZM424 572h-1q-28-56-48.5-93T320 383L244 252H445l-9 119q-7 68-10 109.5T424 572h0Zm97 174l33 133H677L643 746H521Zm-238 0l33 133H439L405 746H283Z"/>
<glyph unicode="&#x4d3;" glyph-name="uni04D3" horiz-adv-x="538" d="M348 221q-55 0-93.5-5t-63-14.5-38-24T135 142q-7-31 8-48t52-17q32 0 63.5 17t54 45.5T342 199l6 22Zm123 13q-17-70-30.5-125.5T415 0H304l16 60h-1Q284 23 241.5 4.5T148-14Q69-14 31 30.5T10 145q10 41 36 70.5t69 49 106 29T368 303l6 23q8 30 0.5 49.5t-27 29T297 414q-40 0-80.5-17T131 343L88 419q55 43 114 64.5T325 505q66 0 109.5-22t59-64 0.5-98l-23-87ZM389 559l33 133H537L504 559H389Zm-204 0l33 133H333L300 559H185Z"/>
<glyph unicode="&#x4d0;" glyph-name="uni04D0" horiz-adv-x="682" d="M529 682L609 0H466L451 154H190L100 0H-48L373 682H529ZM424 572h-1q-28-56-48.5-93T320 383L244 252H445l-9 119q-7 68-10 109.5T424 572h0ZM681 897q-19-78-73-118.5T468 738q-84 0-123.5 42.5T318 897H423q-5-40 9.5-63T479 811q33 0 59 23.5T575 897H681Z"/>
<glyph unicode="&#x4d1;" glyph-name="uni04D1" horiz-adv-x="538" d="M348 221q-55 0-93.5-5t-63-14.5-38-24T135 142q-7-31 8-48t52-17q32 0 63.5 17t54 45.5T342 199l6 22Zm123 13q-17-70-30.5-125.5T415 0H304l16 60h-1Q284 23 241.5 4.5T148-14Q69-14 31 30.5T10 145q10 41 36 70.5t69 49 106 29T368 303l6 23q8 30 0.5 49.5t-27 29T297 414q-40 0-80.5-17T131 343L88 419q55 43 114 64.5T325 505q66 0 109.5-22t59-64 0.5-98l-23-87Zm78 472q-24-78-73-116T351 552q-80 0-116 39T210 706H314q-5-42 6.5-62T361 624q28 0 50 21t36 61H549Z"/>
<glyph unicode="&#x4d4;" glyph-name="uni04D4" horiz-adv-x="984" d="M241 241H448l84 340H478L241 241Zm784 441L999 581H662L617 397H906l-24-98H592L543 103H897L872 0H388l36 144H175L75 0H-75L412 682h613Z"/>
<glyph unicode="&#x4d5;" glyph-name="uni04D5" horiz-adv-x="870" d="M782 70Q733 28 673 7T548-14q-73 0-118 27T367 93q-42-54-97-80.5T148-14Q69-14 31 30.5T10 145q10 41 36 70.5t69 49 106 29T368 303l6 23q7 28 1 48t-25.5 30T297 414q-40 0-80.5-17T131 343L88 419q55 43 114 64.5T325 505q58 0 95.5-17.5T471 438q35 33 80.5 50T651 505q56 0 97-18t65-51.5T843 356t-7-98q-8-29-17-47H467q-7-41 2-71t35-46 67-16q45 0 88 17t80 50l43-75ZM717 294q8 36 1 64t-28.5 42.5T637 415q-32 0-60.5-14t-51-41.5T488 294H717ZM348 221q-55 0-93.5-5t-63-14.5-38-24T135 142q-7-31 8-48t52-17q24 0 47.5 9t44 26 35 39.5T342 199l6 22Z"/>
<glyph unicode="&#x411;" glyph-name="uni0411" horiz-adv-x="688" d="M185 107q61-2 134-2 86 0 128.5 25T504 209q7 30 2 50t-21.5 31.5-44 17T368 313q-79 0-132-2L185 107ZM302 576L263 418q67 2 133 2 74 0 126-13.5T605 366t39.5-68T640 202Q613 96 531.5 47T297-2Q124-2 29 0L199 682H706L680 576H302Z"/>
<glyph unicode="&#x431;" glyph-name="uni0431" horiz-adv-x="585" d="M603 612q-97-3-194-14-58-7-96.5-27.5t-67-60T186 392h3q38 44 86 67t101 23q51 0 89-18.5T525 410t26-83T540 221Q513 113 432 49.5T240-14Q178-14 135 7.5T69 70 44 171 61 307q34 138 80 218T253 647.5 416 702q54 7 111.5 11.5T631 720L603 612ZM257 85q56 0 99.5 41.5T416 234q8 32 6 60t-13.5 48-32 30.5T327 383q-56 0-99-39.5T168 235q-9-35-6.5-62.5t14.5-47 32.5-30T257 85Z"/>
<glyph unicode="&#x412;" glyph-name="uni0412" horiz-adv-x="719" d="M199 682q41 1 119 1.5T456 684q99 0 154.5-17T694 613q16-22 20-50.5T710 502q-14-56-50.5-92.5T560 353q60-15 85.5-59T655 188q-17-67-59-109T484 17.5 298-2Q220-2 156.5-1.5T29 0L199 682Zm59-285H394q57 0 87.5 7T534 428q15 13 24.5 28.5T573 492q9 36-7 58-14 19-42.5 25T424 581q-25 0-58-0.5T303 579L258 397ZM184 103q68-2 94-2t49 0q65 0 102.5 10t60 31T520 197q9 36-1.5 58.5t-40 32.5T385 298H233L184 103Z"/>
<glyph unicode="&#x432;" glyph-name="uni0432" horiz-adv-x="585" d="M135 488q97 14 197 14 51 0 90-5t66-16.5T530 452q17-18 22-44t-2-55q-9-38-38.5-64T439 254v-2q48-12 67-42t8-76q-13-50-48-82.5t-92-48T232-12Q110-12 14 3L135 488ZM155 85q42-7 92-7 42 0 70 7t44.5 21.5T384 144q4 17-1 29.5t-19 20-36 11T273 208H185L155 85Zm50 203h85q41 0 68 6.5T398 315q8 8 12.5 16t7.5 19q3 13 0.5 24T409 392q-10 11-32 15.5T320 412q-47 0-85-5L205 288Z"/>
<glyph unicode="&#x413;" glyph-name="uni0413" horiz-adv-x="525" d="M199 682H628L602 576H302L159 0H29L199 682Z"/>
<glyph unicode="&#x433;" glyph-name="uni0433" horiz-adv-x="421" d="M136 490H477l-24-94H232L133 0H13L136 490Z"/>
<glyph unicode="&#x403;" glyph-name="uni0403" horiz-adv-x="525" d="M199 682H628L602 576H302L159 0H29L199 682Zm142 59L464 883H636L465 741H341Z"/>
<glyph unicode="&#x453;" glyph-name="uni0453" horiz-adv-x="421" d="M136 490H477l-24-94H232L133 0H13L136 490Zm110 62L366 698H528L362 552H246Z"/>
<glyph unicode="&#x490;" glyph-name="uni0490" horiz-adv-x="525" d="M199 682H517l38 153H667L602 576H302L159 0H29L199 682Z"/>
<glyph unicode="&#x491;" glyph-name="uni0491" horiz-adv-x="421" d="M136 490H371l35 142H512L453 396H232L133 0H13L136 490Z"/>
<glyph unicode="&#x492;" glyph-name="uni0492" horiz-adv-x="535" d="M109 284H17l25 95h92l75 303H638L612 575H312L264 379H412l-24-95H239L169 0H39l70 284Z"/>
<glyph unicode="&#x493;" glyph-name="uni0493" horiz-adv-x="421" d="M59 187H-14L9 274H82l54 216H477l-24-94H232L202 274H323l-22-87H179L133 0H13L59 187Z"/>
<glyph unicode="&#x494;" glyph-name="uni0494" horiz-adv-x="658" d="M199 682H632L605 576H302L263 417q82 2 119 2 141 0 197-73t20-214Q567 2 490-67T302-136q-54 0-88 7L241-23q31-7 61-7 57 0 99 44t63 127q12 47 10 80t-16 53-40 29.5T353 313q-44 0-117-2L159 0H29L199 682Z"/>
<glyph unicode="&#x495;" glyph-name="uni0495" horiz-adv-x="568" d="M13 0L136 490H544l-24-92H232l-19-79q-10-37-26-83h2q31 30 68.5 44.5T337 295q65 0 107.5-31.5t55-88.5T493 42Q464-72 389.5-137T208-202q-36 0-56 5l25 98q15-6 41-6 52 0 91.5 40.5T367 48t-1 111.5T294 199t-92-40.5T145 47L133 0H13Z"/>
<glyph unicode="&#x414;" glyph-name="uni0414" horiz-adv-x="780" d="M555-153L594 0H62L24-153H-87l65 259H53q38 42 66.5 90t53 111.5T224 468l58 214H763L619 106H732L666-153H555Zm51 729H375L342 456q-25-93-48-155.5T245 191t-58-85H489L606 576Z"/>
<glyph unicode="&#x434;" glyph-name="uni0434" horiz-adv-x="641" d="M426-142L462 0H51L15-142H-90L-32 94H33q46 47 77.5 106T166 340l43 150H600L502 94h89L531-142H426Zm30 538H295l-22-75q-24-81-51-134.5T159 94H382l74 302Z"/>
<glyph unicode="&#x415;" glyph-name="uni0415" horiz-adv-x="651" d="M199 682H691L666 581H304L257 397H573l-24-98H233L184 102H564L538 0H29L199 682Z"/>
<glyph unicode="&#x435;" glyph-name="uni0435" horiz-adv-x="563" d="M476 70Q427 28 366.5 7T242-14q-80 0-132.5 33t-69 94.5T44 255q19 78 62 135t104 86 135 29q55 0 96-17.5T506 436t30-80-7-98q-6-26-16-47H161q-7-41 2-71t35-46 66-16q46 0 89 17t80 50l43-75ZM411 294q8 36 0.5 64T383 400.5 331 415q-32 0-60.5-14t-51-41.5T182 294H411Z"/>
<glyph unicode="&#x400;" glyph-name="uni0400" horiz-adv-x="651" d="M199 682H691L666 581H304L257 397H573l-24-98H233L184 102H564L538 0H29L199 682Zm233 59L332 883H494l50-142H432Z"/>
<glyph unicode="&#x450;" glyph-name="uni0450" horiz-adv-x="563" d="M476 70Q427 28 366.5 7T242-14q-80 0-132.5 33t-69 94.5T44 255q19 78 62 135t104 86 135 29q55 0 96-17.5T506 436t30-80-7-98q-6-26-16-47H161q-7-41 2-71t35-46 66-16q46 0 89 17t80 50l43-75ZM411 294q8 36 0.5 64T383 400.5 331 415q-32 0-60.5-14t-51-41.5T182 294H411ZM231 698H381l48-146H324L231 698Z"/>
<glyph unicode="&#x401;" glyph-name="uni0401" horiz-adv-x="651" d="M199 682H691L666 581H304L257 397H573l-24-98H233L184 102H564L538 0H29L199 682Zm320 64l33 133H675L641 746H519Zm-238 0l33 133H437L403 746H281Z"/>
<glyph unicode="&#x451;" glyph-name="uni0451" horiz-adv-x="563" d="M476 70Q427 28 366.5 7T242-14q-80 0-132.5 33t-69 94.5T44 255q19 78 62 135t104 86 135 29q55 0 96-17.5T506 436t30-80-7-98q-6-26-16-47H161q-7-41 2-71t35-46 66-16q46 0 89 17t80 50l43-75ZM411 294q8 36 0.5 64T383 400.5 331 415q-32 0-60.5-14t-51-41.5T182 294H411Zm-2 265l33 133H557L524 559H409Zm-204 0l33 133H353L320 559H205Z"/>
<glyph unicode="&#x4d6;" glyph-name="uni04D6" horiz-adv-x="651" d="M199 682H691L666 581H304L257 397H573l-24-98H233L184 102H564L538 0H29L199 682ZM673 897q-19-78-73-118.5T460 738q-84 0-123.5 42.5T310 897H415q-5-40 9.5-63T471 811q33 0 59 23.5T567 897H673Z"/>
<glyph unicode="&#x4d7;" glyph-name="uni04D7" horiz-adv-x="563" d="M476 70Q427 28 366.5 7T242-14q-80 0-132.5 33t-69 94.5T44 255q19 78 62 135t104 86 135 29q55 0 96-17.5T506 436t30-80-7-98q-6-26-16-47H161q-7-41 2-71t35-46 66-16q46 0 89 17t80 50l43-75ZM411 294q8 36 0.5 64T383 400.5 331 415q-32 0-60.5-14t-51-41.5T182 294H411ZM564 706q-24-78-73-116T366 552q-80 0-116 39T225 706H329q-5-42 6.5-62T376 624q28 0 50 21t36 61H564Z"/>
<glyph unicode="&#x4d8;" glyph-name="uni04D8" horiz-adv-x="729" d="M140 547q41 51 90.5 84.5t106.5 50T459 698q96 0 161-48t86-132-5-188q-26-102-84.5-181T476 27 300-16Q200-16 138.5 28.5T59 156t9 191q4 15 9 27t6 15H575q8 60-6 104t-48.5 68T435 585q-44 0-81.5-11t-70-33.5T222 483l-82 64ZM321 98q51 0 95.5 23.5T495 189t56 105H193q-14-61-3.5-105t44-67.5T321 98Z"/>
<glyph unicode="&#x4d9;" glyph-name="uni04D9" horiz-adv-x="563" d="M88 423q50 41 109 61.5T321 505q80 0 132.5-33.5T523 377t-3-141q-20-79-63-135.5T353 15 218-14q-54 0-95 17.5t-65.5 51T27 134t7 98q7 29 16 47H403q7 41-2.5 71t-36 46T298 412q-45 0-89-17t-81-50L88 423Zm65-226q-8-36-1-64t28-42.5T233 76t60.5 14T344 131.5 381 197H153Z"/>
<glyph unicode="&#x416;" glyph-name="uni0416" horiz-adv-x="1026" d="M818 0L681 300H593L519 0H389l74 300H380L94 0H-64L290 369 121 682H267L403 407h87l69 275H689L620 407h80L971 682h156L800 360 965 0H818Z"/>
<glyph unicode="&#x436;" glyph-name="uni0436" horiz-adv-x="800" d="M605 0L512 208H451L400 0H280l51 208H275L81 0H-66L188 264 70 490H206l86-189h63l47 189H522L475 301h57L711 490H854L621 257 738 0H605Z"/>
<glyph unicode="&#x4dc;" glyph-name="uni04DC" horiz-adv-x="1026" d="M818 0L681 300H593L519 0H389l74 300H380L94 0H-64L290 369 121 682H267L403 407h87l69 275H689L620 407h80L971 682h156L800 360 965 0H818ZM697 746l33 133H853L819 746H697Zm-238 0l33 133H615L581 746H459Z"/>
<glyph unicode="&#x4dd;" glyph-name="uni04DD" horiz-adv-x="800" d="M605 0L512 208H451L400 0H280l51 208H275L81 0H-66L188 264 70 490H206l86-189h63l47 189H522L475 301h57L711 490H854L621 257 738 0H605ZM524 559l33 133H672L639 559H524Zm-204 0l33 133H468L435 559H320Z"/>
<glyph unicode="&#x4c1;" glyph-name="uni04C1" horiz-adv-x="1026" d="M818 0L681 300H593L519 0H389l74 300H380L94 0H-64L290 369 121 682H267L403 407h87l69 275H689L620 407h80L971 682h156L800 360 965 0H818Zm37 897q-19-78-73-118.5T642 738q-84 0-123.5 42.5T492 897H597q-5-40 9.5-63T653 811q33 0 59 23.5T749 897H855Z"/>
<glyph unicode="&#x4c2;" glyph-name="uni04C2" horiz-adv-x="800" d="M605 0L512 208H451L400 0H280l51 208H275L81 0H-66L188 264 70 490H206l86-189h63l47 189H522L475 301h57L711 490H854L621 257 738 0H605Zm80 706q-24-78-73-116T487 552q-80 0-116 39T346 706H450q-5-42 6.5-62T497 624q28 0 50 21t36 61H685Z"/>
<glyph unicode="&#x496;" glyph-name="uni0496" horiz-adv-x="1053" d="M389 0l74 300H380L94 0H-64L290 370 121 682H267L403 407h87l69 275H689L620 407h80L971 682h156L800 360 919 106h101L954-153H843L882 0H818L681 300H593L519 0H389Z"/>
<glyph unicode="&#x497;" glyph-name="uni0497" horiz-adv-x="819" d="M617-142L653 0H605L512 208H451L400 0H280l51 208H275L81 0H-66L188 264 70 490H206l86-189h63l47 189H522L475 301h57L711 490H854L621 257 699 94h83L723-142H617Z"/>
<glyph unicode="&#x417;" glyph-name="uni0417" horiz-adv-x="645" d="M87 180q29-43 77-66T273 91q71 0 115.5 27T445 193q9 36-5 58.5t-51.5 33T290 295H196l27 103h92q81 0 126 24t57 73q11 46-18.5 71T383 591q-59 0-114.5-19T169 517l-37 92q61 44 130.5 66.5T412 698q85 0 140.5-23t77-67.5T636 503q-14-56-54.5-95.5T483 355v-1q62-14 87.5-57T581 187Q560 93 473 38.5T261-16q-94 0-159 28T-5 98l92 82Z"/>
<glyph unicode="&#x437;" glyph-name="uni0437" horiz-adv-x="522" d="M50 144q25-32 65.5-49.5T203 77q50 0 79.5 16T320 141q9 34-17.5 50.5T212 208H137l21 82h79q54 0 84.5 16T359 354q7 28-13.5 44T280 414q-47 0-90.5-14.5T111 356L78 430q48 37 105.5 56T306 505q104 0 153.5-40T492 356q-11-41-39.5-66T378 255v-2q46-9 64.5-41.5T449 131Q431 61 366 23.5T197-14Q128-14 72.5 7.5T-16 67l66 77Z"/>
<glyph unicode="&#x4de;" glyph-name="uni04DE" horiz-adv-x="645" d="M87 180q29-43 77-66T273 91q71 0 115.5 27T445 193q9 36-5 58.5t-51.5 33T290 295H196l27 103h92q81 0 126 24t57 73q11 46-18.5 71T383 591q-59 0-114.5-19T169 517l-37 92q61 44 130.5 66.5T412 698q85 0 140.5-23t77-67.5T636 503q-14-56-54.5-95.5T483 355v-1q62-14 87.5-57T581 187Q560 93 473 38.5T261-16q-94 0-159 28T-5 98l92 82ZM487 746l33 133H643L609 746H487Zm-238 0l33 133H405L371 746H249Z"/>
<glyph unicode="&#x4df;" glyph-name="uni04DF" horiz-adv-x="522" d="M50 144q25-32 65.5-49.5T203 77q50 0 79.5 16T320 141q9 34-17.5 50.5T212 208H137l21 82h79q54 0 84.5 16T359 354q7 28-13.5 44T280 414q-47 0-90.5-14.5T111 356L78 430q48 37 105.5 56T306 505q104 0 153.5-40T492 356q-11-41-39.5-66T378 255v-2q46-9 64.5-41.5T449 131Q431 61 366 23.5T197-14Q128-14 72.5 7.5T-16 67l66 77ZM378 559l33 133H526L493 559H378Zm-204 0l33 133H322L289 559H174Z"/>
<glyph unicode="&#x498;" glyph-name="uni0498" horiz-adv-x="645" d="M162-153L197-11Q130-4 79.5 23.5T-5 99l92 82q29-43 77-66T273 92q71 0 115.5 27T445 194q9 35-4.5 57.5T390 285 290 296H196l27 103h92q56 0 93.5 10.5t59.5 32T498 495q8 31-3.5 52.5t-40 32.5T383 591q-59 0-114.5-19T169 517l-37 92q61 44 130.5 66.5T412 698q86 0 141.5-23.5t76.5-68T636 503q-14-56-54.5-94.5T483 356v-2q63-13 88-56t10-110q-13-55-49-97.5t-93.5-69T308-12L273-153H162Z"/>
<glyph unicode="&#x499;" glyph-name="uni0499" horiz-adv-x="522" d="M103-142L136-10Q86-2 47.5 17.5T-16 67l66 77q25-32 65.5-49.5T203 77q50 0 79.5 16T320 141q4 17-0.5 29.5t-17 21T267 204t-55 4H137l21 82h79q54 0 84.5 16T359 354q7 28-13.5 44T280 414q-48 0-91-14.5T111 356L78 430q48 37 106 56t122 19q69 0 114.5-18t64-51.5T492 356q-11-40-39.5-65.5T378 255v-2q46-9 64.5-41.5T449 131q-16-62-69.5-99T242-12L209-142H103Z"/>
<glyph unicode="&#x418;" glyph-name="uni0418" horiz-adv-x="772" d="M494 0L617 494 168 0H29L199 682H329L206 189 654 682H794L624 0H494Z"/>
<glyph unicode="&#x438;" glyph-name="uni0438" horiz-adv-x="623" d="M370 0l84 339L149 0H13L136 490H256L173 159 471 490H612L490 0H370Z"/>
<glyph unicode="&#x419;" glyph-name="uni0419" horiz-adv-x="772" d="M494 0L617 494 168 0H29L199 682H329L206 189 654 682H794L624 0H494ZM725 897q-19-78-73-118.5T512 738q-84 0-123.5 42.5T362 897H467q-5-40 9.5-63T523 811q33 0 59 23.5T619 897H725Z"/>
<glyph unicode="&#x439;" glyph-name="uni0439" horiz-adv-x="623" d="M370 0l84 339L149 0H13L136 490H256L173 159 471 490H612L490 0H370ZM589 706q-24-78-73-116T391 552q-80 0-116 39T250 706H354q-5-42 6.5-62T401 624q28 0 50 21t36 61H589Z"/>
<glyph unicode="&#x4e2;" glyph-name="uni04E2" horiz-adv-x="772" d="M494 0L617 494 168 0H29L199 682H329L206 189 654 682H794L624 0H494ZM677 759H342l25 101H703L677 759Z"/>
<glyph unicode="&#x4e3;" glyph-name="uni04E3" horiz-adv-x="623" d="M370 0l84 339L149 0H13L136 490H256L173 159 471 490H612L490 0H370ZM544 572H233l24 97H569l-25-97Z"/>
<glyph unicode="&#x40d;" glyph-name="uni040D" horiz-adv-x="772" d="M494 0L617 494 168 0H29L199 682H329L206 189 654 682H794L624 0H494ZM465 741L365 883H527l50-142H465Z"/>
<glyph unicode="&#x45d;" glyph-name="uni045D" horiz-adv-x="623" d="M370 0l84 339L149 0H13L136 490H256L173 159 471 490H612L490 0H370ZM260 698H410l48-146H353L260 698Z"/>
<glyph unicode="&#x4e4;" glyph-name="uni04E4" horiz-adv-x="772" d="M494 0L617 494 168 0H29L199 682H329L206 189 654 682H794L624 0H494Zm71 746l33 133H721L687 746H565Zm-238 0l33 133H483L449 746H327Z"/>
<glyph unicode="&#x4e5;" glyph-name="uni04E5" horiz-adv-x="623" d="M370 0l84 339L149 0H13L136 490H256L173 159 471 490H612L490 0H370Zm61 559l33 133H579L546 559H431Zm-204 0l33 133H375L342 559H227Z"/>
<glyph unicode="&#x406;" glyph-name="uni0406" horiz-adv-x="308" d="M199 682H329L159 0H29L199 682Z"/>
<glyph unicode="&#x456;" glyph-name="uni0456" horiz-adv-x="267" d="M151 557l35 137H307L274 557H151ZM13 0L136 490H256L133 0H13Z"/>
<glyph unicode="&#x407;" glyph-name="uni0407" horiz-adv-x="308" d="M199 682H329L159 0H29L199 682Zm140 64l33 133H495L461 746H339Zm-238 0l33 133H257L223 746H101Z"/>
<glyph unicode="&#x457;" glyph-name="uni0457" horiz-adv-x="267" d="M13 0L136 490H256L133 0H13ZM245 559l33 133H387L354 559H245ZM73 559l33 133H215L182 559H73Z"/>
<glyph unicode="&#x4c0;" glyph-name="uni04C0" horiz-adv-x="308" d="M199 682H329L159 0H29L199 682Z"/>
<glyph unicode="&#x4cf;" glyph-name="uni04CF" horiz-adv-x="267" d="M190 706H310L133 0H13L190 706Z"/>
<glyph unicode="&#x408;" glyph-name="uni0408" horiz-adv-x="556" d="M584 682L467 212Q439 100 370.5 42T190-16q-46 0-85 12.5t-66 41T1 111 1 222l134 22q-14-78 3-112t71-34q100 0 130 123L454 682H584Z"/>
<glyph unicode="&#x458;" glyph-name="uni0458" horiz-adv-x="274" d="M263 490L136-16Q119-85 93.5-125.5T30.5-184-61-202q-32 0-56 8l23 91h37q21 0 34 9T0-63 22 6L143 490H263ZM158 557l34 137H314L280 557H158Z"/>
<glyph unicode="&#x41a;" glyph-name="uni041A" horiz-adv-x="699" d="M485 0L322 300H233L159 0H29L199 682H329L260 407h77L638 682H802L439 362 637 0H485Z"/>
<glyph unicode="&#x43a;" glyph-name="uni043A" horiz-adv-x="551" d="M353 0L252 208H185L133 0H13L136 490H256L208 301h60L459 490H607L364 260 490 0H353Z"/>
<glyph unicode="&#x40c;" glyph-name="uni040C" horiz-adv-x="699" d="M485 0L322 300H233L159 0H29L199 682H329L260 407h77L638 682H802L439 362 637 0H485ZM409 741L532 883H704L533 741H409Z"/>
<glyph unicode="&#x45c;" glyph-name="uni045C" horiz-adv-x="551" d="M353 0L252 208H185L133 0H13L136 490H256L208 301h60L459 490H607L364 260 490 0H353ZM292 552L412 698H574L408 552H292Z"/>
<glyph unicode="&#x4a0;" glyph-name="uni04A0" horiz-adv-x="793" d="M578 0L416 300H327L253 0H123L267 581H80l25 101H423L354 407h78L732 682H896L533 362 731 0H578Z"/>
<glyph unicode="&#x4a1;" glyph-name="uni04A1" horiz-adv-x="624" d="M426 0L326 208H258L207 0H87l99 396H56l24 94H330L282 302h61L533 490H680L438 259 564 0H426Z"/>
<glyph unicode="&#x49a;" glyph-name="uni049A" horiz-adv-x="714" d="M504-153L543 0H485L322 300H233L159 0H29L199 682H329L260 407h77L638 682H802L439 362 584 106h98L616-153H504Z"/>
<glyph unicode="&#x49b;" glyph-name="uni049B" horiz-adv-x="565" d="M13 0L136 490H256L209 302h60L459 490H607L364 260 449 94h79L469-142H363L399 0H353L252 208H185L133 0H13Z"/>
<glyph unicode="&#x49c;" glyph-name="uni049C" horiz-adv-x="771" d="M249 150l37 150H233L159 0H29L199 682H329L260 407h53l38 151H456L418 407h35L707 682H868L548 357 702 0H549L429 300H392L354 150H249Z"/>
<glyph unicode="&#x49d;" glyph-name="uni049D" horiz-adv-x="610" d="M208 101l27 107H185L133 0H13L136 490H256L209 302h49l27 107h89L347 302h35L521 490H659L471 258 543 0H411L363 208H324L297 101H208Z"/>
<glyph unicode="&#x41b;" glyph-name="uni041B" horiz-adv-x="747" d="M468 0L611 576H376L337 435q-42-147-74.5-230t-66-130T121 7 18-14q-21 0-38 2.5T-48-6L-22 99H22q30 0 52.5 17t45 56.5 47 108.5T221 459l63 223H768L598 0H468Z"/>
<glyph unicode="&#x43b;" glyph-name="uni043B" horiz-adv-x="609" d="M355 0l99 396H289l-26-89q-29-99-54.5-160T155 51.5 93 1.5 10-14q-16 0-33 2T-50-6l23 91H3q24 0 43.5 12T83 136.5t35 74T157 330l46 160H597L475 0H355Z"/>
<glyph unicode="&#x409;" glyph-name="uni0409" horiz-adv-x="1089" d="M601 576H376L337 435q-42-147-74.5-230t-66-130T121 7 18-14q-21 0-38 2.5T-48-6L-22 99H22q30 0 53.5 18t45 57.5 46 107.5T221 459l63 223H758L700 451q60 2 125 2 71 0 123.5-15t83-45.5 39-74T1065 218Q1036 106 952 52T720-2Q671-2 458 0L601 576Zm13-471q44-1 129-1 80 0 125 29t60 92q9 31 6 54t-18 38-42.5 22.5T803 347q-85 0-129-1L614 105Z"/>
<glyph unicode="&#x459;" glyph-name="uni0459" horiz-adv-x="874" d="M446 396H289l-26-89q-29-99-54.5-159.5T155.5 52 93.5 1.5 10-14q-16 0-33 2T-50-6l23 91H3q24 0 43.5 12T83 136t35 73.5T157 330l46 160H589L554 350q40 1 74 1 59 0 101.5-13.5t67.5-39T829 237t-4-80Q805 75 737 31.5T559-12Q442-12 347 3l99 393ZM488 87q35-7 80-7 55 0 88 22.5T699 167q12 45-11 68.5T609 259q-50 0-79-2L488 87Z"/>
<glyph unicode="&#x41c;" glyph-name="uni041C" horiz-adv-x="959" d="M199 682H408l37-310q9-65 12.5-110t3.5-81h2q13 31 34.5 70T572 372L764 682H980L810 0H680l60 240q23 95 45.5 180.5T830 580h-5q-28-52-54.5-96.5T710 385L473 0H358L313 386q-12 86-15 123t-3 71h-4q-11-50-31-137T211 240L151 0H29L199 682Z"/>
<glyph unicode="&#x43c;" glyph-name="uni043C" horiz-adv-x="821" d="M616 204q14 91 29 189h-4L406 0H290L252 393h-4q-36-107-64-188L110 0H-6L177 490H351l23-234q6-68 6-115h3q30 62 62 115L586 490H769L708 0H587l29 204Z"/>
<glyph unicode="&#x41d;" glyph-name="uni041D" horiz-adv-x="763" d="M199 682H329L260 409H586l68 273H784L614 0H484l74 299H233L159 0H29L199 682Z"/>
<glyph unicode="&#x43d;" glyph-name="uni043D" horiz-adv-x="606" d="M404 208H185L133 0H13L136 490H256L209 302H428l47 188H595L473 0H353l51 208Z"/>
<glyph unicode="&#x4a2;" glyph-name="uni04A2" horiz-adv-x="801" d="M576-153L615 0H484l74 299H233L159 0H29L199 682H329L260 409H586l68 273H784L640 106H752L687-153H576Z"/>
<glyph unicode="&#x4a3;" glyph-name="uni04A3" horiz-adv-x="636" d="M420-142L456 0H353l51 208H185L133 0H13L136 490H256L209 302H428l47 188H595L495 94h90L526-142H420Z"/>
<glyph unicode="&#x4a4;" glyph-name="uni04A4" horiz-adv-x="956" d="M480 0l74 299H233L159 0H29L199 682H329L261 409H582l68 273h409l-26-102H754L610 0H480Z"/>
<glyph unicode="&#x4a5;" glyph-name="uni04A5" horiz-adv-x="751" d="M349 0l51 208H185L133 0H13L136 490H256L209 302H424l47 188H808l-24-94H567L469 0H349Z"/>
<glyph unicode="&#x40a;" glyph-name="uni040A" horiz-adv-x="1101" d="M548 300H233L159 0H29L199 682H329L260 409H576l68 273H774L716 452q60 1 123 1 72 0 124-15t82.5-45 38.5-73.5T1078 219q-19-75-62-123.5t-113-73T735-2Q704-2 474 0l74 300Zm82-195q44-1 128-1 54 0 91.5 13.5T909 157t33 69q8 32 5 54t-17 37-42 22.5T818 347q-84 0-128-1L630 105Z"/>
<glyph unicode="&#x45a;" glyph-name="uni045A" horiz-adv-x="869" d="M394 208H185L133 0H13L136 490H256L209 302H418l47 188H585L549 350q41 1 75 1 58 0 100.5-13.5T792 299t32-61-3-81Q800 75 732.5 31.5T555-12Q438-12 343 3l51 205ZM484 87q35-7 80-7 55 0 88 22.5T695 167q12 45-11.5 68.5T605 259q-50 0-79-2L484 87Z"/>
<glyph unicode="&#x41e;" glyph-name="uni041E" horiz-adv-x="787" d="M760 334q-26-105-87-184.5T524.5 27 336-16Q234-16 165 30.5t-92 130T76 348q27 106 88.5 186t149 122T501 698q102 0 170.5-46T763 522.5 760 334h0Zm-136 7q19 73 7.5 128T581 554 479 584q-62 0-116-29.5T270 470 212 341q-17-72-6.5-127t50-85.5T358 98t117 30.5T568 214t56 127h0Z"/>
<glyph unicode="&#x43e;" glyph-name="uni043E" horiz-adv-x="584" d="M542 237q-19-78-62-135T374.5 15.5 236-14q-78 0-129 33.5t-68 94T43 253q19 78 62 135t105.5 87T349 505q78 0 129-33.5T546 377t-4-140h0Zm-125 8q12 48 6 84.5T394 386t-62 20-72-20-56.5-56.5T168 245t-6-84.5 29-56T253 85t72 19.5 56.5 56T417 245h0Z"/>
<glyph unicode="&#x4e6;" glyph-name="uni04E6" horiz-adv-x="787" d="M760 334q-26-105-87-184.5T524.5 27 336-16Q234-16 165 30.5t-92 130T76 348q27 106 88.5 186t149 122T501 698q102 0 170.5-46T763 522.5 760 334h0Zm-136 7q19 73 7.5 128T581 554 479 584q-62 0-116-29.5T270 470 212 341q-17-72-6.5-127t50-85.5T358 98t117 30.5T568 214t56 127h0ZM578 746l33 133H734L700 746H578Zm-238 0l33 133H496L462 746H340Z"/>
<glyph unicode="&#x4e7;" glyph-name="uni04E7" horiz-adv-x="584" d="M542 237q-19-78-62-135T374.5 15.5 236-14q-78 0-129 33.5t-68 94T43 253q19 78 62 135t105.5 87T349 505q78 0 129-33.5T546 377t-4-140h0Zm-125 8q12 48 6 84.5T394 386t-62 20-72-20-56.5-56.5T168 245t-6-84.5 29-56T253 85t72 19.5 56.5 56T417 245h0Zm-1 314l33 133H564L531 559H416Zm-204 0l33 133H360L327 559H212Z"/>
<glyph unicode="&#x472;" glyph-name="uni0472" horiz-adv-x="787" d="M760 334q-20-81-60.5-146t-96-110.5T479.5 8 336-16q-77 0-134.5 26t-92 74-44 115.5T76 348t60.5 146 96 110.5 124 69.5T501 698q77 0 134.5-26t92-74T771 482.5 760 334ZM357 95q43 0 82.5 14.5t73 41 59 64.5T614 300H201q-7-47 0-84.5T227.5 151t52-41.5T357 95ZM480 588q-43 0-81-13.5T328.5 536 271 476t-43-78H637q4 43-4.5 78T604 536t-51 38.5T480 588Z"/>
<glyph unicode="&#x473;" glyph-name="uni0473" horiz-adv-x="584" d="M542 237q-14-59-42.5-105.5t-68-79T342.5 3 236-14Q177-14 133.5 5T65 59 33.5 143.5 43 253q14 59 42.5 106t68 79T242 487.5 349 505q59 0 102.5-19T520 431.5 551 347t-9-110ZM251 79q29 0 53.5 9T349 114t35.5 40.5T410 207H156q-4-29 0-52.5T172 114t31.5-26T251 79Zm83 333q-27 0-51-9t-44-25-36-38.5T177 289H430q3 28-1.5 50.5t-16 38.5T381 403t-47 9Z"/>
<glyph unicode="&#x4e8;" glyph-name="uni04E8" horiz-adv-x="787" d="M760 334q-20-81-60.5-146t-96-110.5T479.5 8 336-16q-77 0-134.5 26t-92 74-44 115.5T76 348t60.5 146 96 110.5 124 69.5T501 698q77 0 134.5-26t92-74T771 482.5 760 334ZM357 95q43 0 82.5 14.5t73 41 59 64.5T614 300H201q-7-47 0-84.5T227.5 151t52-41.5T357 95ZM480 588q-43 0-81-13.5T328.5 536 271 476t-43-78H637q4 43-4.5 78T604 536t-51 38.5T480 588Z"/>
<glyph unicode="&#x4e9;" glyph-name="uni04E9" horiz-adv-x="584" d="M542 237q-14-59-42.5-105.5t-68-79T342.5 3 236-14Q177-14 133.5 5T65 59 33.5 143.5 43 253q14 59 42.5 106t68 79T242 487.5 349 505q59 0 102.5-19T520 431.5 551 347t-9-110ZM251 79q29 0 53.5 9T349 114t35.5 40.5T410 207H156q-4-29 0-52.5T172 114t31.5-26T251 79Zm83 333q-27 0-51-9t-44-25-36-38.5T177 289H430q3 28-1.5 50.5t-16 38.5T381 403t-47 9Z"/>
<glyph unicode="&#x41f;" glyph-name="uni041F" horiz-adv-x="754" d="M475 0L618 576H302L159 0H29L199 682H775L605 0H475Z"/>
<glyph unicode="&#x43f;" glyph-name="uni043F" horiz-adv-x="603" d="M350 0l98 396H232L133 0H13L136 490H593L470 0H350Z"/>
<glyph unicode="&#x420;" glyph-name="uni0420" horiz-adv-x="666" d="M199 682q43 0 130.5 1T464 684q95 0 156-27.5t82-79T704 453q-18-72-60.5-119.5T531.5 263 362 240q-61 0-90 0t-53 1L159 0H29L199 682ZM568 461q10 40 0.5 65.5t-41 38T442 577q-60 0-87.5 0T303 576L245 347q24-1 51-1t86 0q54 0 92 12.5t61 38T568 461h0Z"/>
<glyph unicode="&#x440;" glyph-name="uni0440" horiz-adv-x="598" d="M-35-192L75 246q13 53 26.5 110T132 490H246l-15-65h1q34 39 77 59.5T401 505q66 0 108-35t54.5-96T557 238q-19-78-60-135.5t-98-87T275-14q-46 0-81.5 17.5T143 51h-1q-4-31-18-85L85-192H-35ZM190 236q-12-47-6.5-82T211 100.5 269 82q37 0 70 20.5T396 160t35 86q13 50 7.5 87T411 389.5 353 409q-35 0-67-19t-56-54.5T194 254l-4-18Z"/>
<glyph unicode="&#x421;" glyph-name="uni0421" horiz-adv-x="704" d="M658 189Q606 88 521.5 36T324-16q-98 0-164 46.5T72 161t5 189q26 107 84 185T302.5 655.5 480 698q103 0 170.5-53T729 500L601 461q-9 62-43.5 93T464 585q-56 0-107.5-31t-89-86T212 340t-8-127.5 46.5-84T347 99q64 0 115 35t91 107l105-52Z"/>
<glyph unicode="&#x441;" glyph-name="uni0441" horiz-adv-x="533" d="M475 127Q429 56 367.5 21T227-14q-74 0-123 34T39 115t4 139 61 134.5T205.5 475 337 505q85 0 135.5-38T534 359L417 326q-8 43-29.5 62T325 407q-35 0-66-19t-54.5-56T168 245q-12-48-7-85t27-57 58-20q44 0 78.5 24.5T390 182l85-55Z"/>
<glyph unicode="&#x4aa;" glyph-name="uni04AA" horiz-adv-x="704" d="M220-153L256-9Q200 2 158 32T92 108.5 63.5 216 77 350q23 91 66 157t97.5 108.5T357 678t123 20q50 0 93-13t75.5-38.5 53.5-62T729 500L601 461q-9 63-43.5 93.5T464 585q-39 0-78-16t-73-47-60-77T212 340q-14-56-11-100.5T221 164t49-48 77-17q31 0 59.5 8t54 25.5T509 177t44 64l105-52Q611 97 537.5 46.5T366-14L331-153H220Z"/>
<glyph unicode="&#x4ab;" glyph-name="uni04AB" horiz-adv-x="533" d="M127-142L161-5Q122 4 94 26.5t-43.5 56-18 77T43 254q16 63 44.5 109.5t67 78 85 47.5T337 505q88 0 137-39t60-107L417 326q-8 44-30 62.5T325 407q-53 0-95-41.5T168 245q-9-35-8.5-65t10-51.5 29-33.5T246 83q47 0 81 26.5T390 182l85-55q-39-60-89.5-94.5T271-11L238-142H127Z"/>
<glyph unicode="&#x405;" glyph-name="uni0405" horiz-adv-x="673" d="M85 187q51-49 110-73T321 90q41 0 71.5 9T442 127t26 46q7 26-2.5 45.5t-35 34.5-114 41.5T188 350.5t-52.5 73T138 526q14 54 51.5 93T285 678t130 20q80 0 143.5-20.5T666 618l-67-98q-40 37-89.5 55T403 593q-37 0-65-8.5T293.5 560 271 521q-7-25 3-44t34.5-33T421 404.5 550 349t54-75-3-107q-13-55-54-97T443.5 6 306-16q-90 0-162 26.5T17 90l68 97Z"/>
<glyph unicode="&#x455;" glyph-name="uni0455" horiz-adv-x="510" d="M56 145q33-32 77.5-49.5T223 78q29 0 48.5 5t31 15.5T318 125q4 17-2.5 29.5T292 177t-77.5 30.5-89.5 43-38.5 54T88 379q10 40 38 68.5t73 43T305 505q57 0 106-15t79-40l-55-83q-27 23-65 35.5T294 415q-26 0-43.5-4.5t-28-13.5T209 374q-4-16 2.5-28.5t23-22 77.5-30T402 250t39-55-1-75q-10-43-39.5-73T323 1.5 211-14Q145-14 88 5.5T-4 60l60 85Z"/>
<glyph unicode="&#x422;" glyph-name="uni0422" horiz-adv-x="538" d="M286 576H78l27 106H653L626 576H419L275 0H143L286 576Z"/>
<glyph unicode="&#x442;" glyph-name="uni0442" horiz-adv-x="466" d="M113 0l99 396H56l24 94H512l-24-94H332L233 0H113Z"/>
<glyph unicode="&#x423;" glyph-name="uni0423" horiz-adv-x="637" d="M43 98h73q43 0 79 21.5T264 187L122 682H261L362 315 608 682H753L401 186q-53-73-99-116.5t-93.5-64T102-15Q51-15 17-5L43 98Z"/>
<glyph unicode="&#x443;" glyph-name="uni0443" horiz-adv-x="521" d="M5-192L138-12 67 490H200l19-198q9-85 13-158h3q29 54 91 158L444 490H580L137-192H5Z"/>
<glyph unicode="&#x40e;" glyph-name="uni040E" horiz-adv-x="637" d="M43 98h73q43 0 79 21.5T264 187L122 682H261L362 315 608 682H753L401 186q-53-73-99-116.5t-93.5-64T102-15Q51-15 17-5L43 98ZM677 897q-19-78-73-118.5T464 738q-84 0-123.5 42.5T314 897H419q-5-40 9.5-63T475 811q33 0 59 23.5T571 897H677Z"/>
<glyph unicode="&#x45e;" glyph-name="uni045E" horiz-adv-x="521" d="M5-192L138-12 67 490H200l19-198q9-85 13-158h3q29 54 91 158L444 490H580L137-192H5ZM543 706q-24-78-73-116T345 552q-80 0-116 39T204 706H308q-5-42 6.5-62T355 624q28 0 50 21t36 61H543Z"/>
<glyph unicode="&#x4ee;" glyph-name="uni04EE" horiz-adv-x="637" d="M43 98h73q43 0 79 21.5T264 187L122 682H261L362 315 608 682H753L401 186q-53-73-99-116.5t-93.5-64T102-15Q51-15 17-5L43 98ZM630 759H295l25 101H656L630 759Z"/>
<glyph unicode="&#x4ef;" glyph-name="uni04EF" horiz-adv-x="521" d="M5-192L138-12 67 490H200l19-198q9-85 13-158h3q29 54 91 158L444 490H580L137-192H5ZM496 572H185l24 97H521l-25-97Z"/>
<glyph unicode="&#x4f2;" glyph-name="uni04F2" horiz-adv-x="637" d="M43 98h73q43 0 79 21.5T264 187L122 682H261L362 315 608 682H753L401 186q-53-73-99-116.5t-93.5-64T102-15Q51-15 17-5L43 98ZM495 741L617 883H788L618 741H495Zm-227 0L368 883H529L388 741H268Z"/>
<glyph unicode="&#x4f3;" glyph-name="uni04F3" horiz-adv-x="521" d="M5-192L138-12 67 490H200l19-198q9-85 13-158h3q29 54 91 158L444 490H580L137-192H5ZM367 552L487 698H649L483 552H367Zm-203 0l98 146H416L278 552H164Z"/>
<glyph unicode="&#x4f0;" glyph-name="uni04F0" horiz-adv-x="637" d="M43 98h73q43 0 79 21.5T264 187L122 682H261L362 315 608 682H753L401 186q-53-73-99-116.5t-93.5-64T102-15Q51-15 17-5L43 98ZM525 746l33 133H681L647 746H525Zm-238 0l33 133H443L409 746H287Z"/>
<glyph unicode="&#x4f1;" glyph-name="uni04F1" horiz-adv-x="521" d="M5-192L138-12 67 490H200l19-198q9-85 13-158h3q29 54 91 158L444 490H580L137-192H5ZM383 559l33 133H531L498 559H383Zm-204 0l33 133H327L294 559H179Z"/>
<glyph unicode="&#x4ae;" glyph-name="uni04AE" horiz-adv-x="634" d="M192 0l69 280L110 682H260l96-273L585 682H744L392 281 322 0H192Z"/>
<glyph unicode="&#x4af;" glyph-name="uni04AF" horiz-adv-x="515" d="M88-192L137 0 66 490H196l21-190q10-92 11-167h2q19 37 43.5 80.5T323 300L434 490H573L258 0 209-192H88Z"/>
<glyph unicode="&#x4b0;" glyph-name="uni04B0" horiz-adv-x="634" d="M192 0l43 175H96l26 99H259l2 6L110 682H260l96-273L585 682H744L392 281l-2-7H529l-25-99H365L322 0H192Z"/>
<glyph unicode="&#x4b1;" glyph-name="uni04B1" horiz-adv-x="515" d="M258 0L209-192H88L137 0H-10L12 89H124L67 490H197l20-190q4-31 8-83t4-82h3q13 26 42 77.5T324 300L436 490H574L314 89H428L406 0H258Z"/>
<glyph unicode="&#x424;" glyph-name="uni0424" horiz-adv-x="1005" d="M367-37L393 70l-56 1q-75 2-133 21t-94.5 55.5-48 92T69 368q15 61 49.5 111T205 565t121.5 56.5T482 643l56 1 22 94H692l-22-94 55-1q82-1 140.5-22.5t92.5-60 43.5-92.5T995 347q-17-65-53-115.5T853 146 731 92 580 71l-54-1L499-37H367ZM512 545l-55-1q-97-2-164.5-49.5T203 358q-11-45-5.5-79.5T224 220t56-36.5T363 170l55-1 94 376Zm39-376l54 1q47 1 89 14t75 37.5T825.5 280 860 358q22 87-20 135.5T699 544l-54 1L551 169Z"/>
<glyph unicode="&#x444;" glyph-name="uni0444" horiz-adv-x="787" d="M225-192L270-11Q204-6 155 14.5T76 69 37 149.5 42 253q14 55 44.5 100t76 76.5 105 50T398 500l52 206H570L518 500q66-5 115.5-25T713 421t39.5-80.5T747 237q-14-56-44.5-100t-76-76.5T521.5 10 390-11L345-192H225ZM377 408q-37-3-70-13t-61-29.5T198 316t-30-70-5-70 22.5-49.5 46-30.5T295 82l82 326ZM412 82q36 2 69.5 13t61 30.5 48 49T621 244q10 41 5 70t-22 49-45.5 31T494 408L412 82Z"/>
<glyph unicode="&#x425;" glyph-name="uni0425" horiz-adv-x="622" d="M415 0L317 264 90 0H-62L260 362 129 682H278l84-230L556 682H708L419 354 564 0H415Z"/>
<glyph unicode="&#x445;" glyph-name="uni0445" horiz-adv-x="510" d="M215 490l65-149L405 490H548L334 252 449 0H309L234 174 90 0H-60L179 264 75 490H215Z"/>
<glyph unicode="&#x4b2;" glyph-name="uni04B2" horiz-adv-x="670" d="M460-153L499 0H415L317 264 90 0H-62L260 362 129 682H278l84-230L556 682H708L419 354 521 106H637L571-153H460Z"/>
<glyph unicode="&#x4b3;" glyph-name="uni04B3" horiz-adv-x="542" d="M-60 0L179 264 75 490H215l65-149L405 490H548L334 252 406 94h99L446-142H340L376 0H309L234 174 90 0H-60Z"/>
<glyph unicode="&#x426;" glyph-name="uni0426" horiz-adv-x="778" d="M553-153L592 0H29L199 682H329L185 106H487L631 682H761L617 106H730L664-153H553Z"/>
<glyph unicode="&#x446;" glyph-name="uni0446" horiz-adv-x="622" d="M407-142L443 0H13L135 490H255L157 94H363l98 396H581L483 94h89L513-142H407Z"/>
<glyph unicode="&#x40f;" glyph-name="uni040F" horiz-adv-x="740" d="M215-153L254 0H29L199 682H329L185 106H487L631 682H761L591 0H365L327-153H215Z"/>
<glyph unicode="&#x45f;" glyph-name="uni045F" horiz-adv-x="593" d="M148-142L184 0H13L135 490H255L157 94H363l98 396H581L459 0H289L253-142H148Z"/>
<glyph unicode="&#x427;" glyph-name="uni0427" horiz-adv-x="688" d="M409 0l62 249H325q-136 0-188 60T116 493l48 189H294L251 508q-22-85 3-119t108-34H498l81 327H709L539 0H409Z"/>
<glyph unicode="&#x447;" glyph-name="uni0447" horiz-adv-x="549" d="M295 0l50 198q-27-29-65-44t-80-15q-93 0-127 53T65 349l36 141H221L188 361q-11-45-8.5-72.5t19-40.5T247 235q51 0 88 37.5T389 375l29 115H538L415 0H295Z"/>
<glyph unicode="&#x4f4;" glyph-name="uni04F4" horiz-adv-x="688" d="M409 0l62 249H325q-136 0-188 60T116 493l48 189H294L251 508q-22-85 3-119t108-34H498l81 327H709L539 0H409ZM512 746l33 133H668L634 746H512Zm-238 0l33 133H430L396 746H274Z"/>
<glyph unicode="&#x4f5;" glyph-name="uni04F5" horiz-adv-x="549" d="M295 0l50 198q-27-29-65-44t-80-15q-93 0-127 53T65 349l36 141H221L188 361q-11-45-8.5-72.5t19-40.5T247 235q51 0 88 37.5T389 375l29 115H538L415 0H295Zm85 559l33 133H528L495 559H380Zm-204 0l33 133H324L291 559H176Z"/>
<glyph unicode="&#x4b8;" glyph-name="uni04B8" horiz-adv-x="706" d="M256 114l34 138q-78 5-123 32.5T109.5 364 116 493l48 189H294L251 508q-12-48-9.5-77.5t20.5-46T318 362l39 160H462L421 357h95l81 325H727L557 0H427l62 251H395L361 114H256Z"/>
<glyph unicode="&#x4b9;" glyph-name="uni04B9" horiz-adv-x="585" d="M179 51l21 88q-58 5-94 31.5T59.5 242 65 349l36 141H221L188 361q-10-36-9-61t12.5-40T225 240l30 119h89L316 245q39 13 68 48t41 83l29 114H574L452 0H332l49 200q-18-19-41-32.5T291 148L267 51H179Z"/>
<glyph unicode="&#x4b6;" glyph-name="uni04B6" horiz-adv-x="727" d="M502-153L540 0H409l62 249H325q-137 0-188.5 60T116 493l48 189H294L251 508q-22-85 3-119t108-34H498l81 327H709L565 106H678L613-153H502Z"/>
<glyph unicode="&#x4b7;" glyph-name="uni04B7" horiz-adv-x="580" d="M363-142L399 0H295l49 197q-29-28-66-43t-79-15q-91 0-125 53.5T65 349l36 141H221L188 361q-17-67-2.5-96.5T246 235q50 0 88.5 38.5T389 375l29 115H538L439 95h89L469-142H363Z"/>
<glyph unicode="&#x428;" glyph-name="uni0428" horiz-adv-x="1093" d="M29 0L199 682H329L185 106H448L592 682H722L578 106H841L984 682h130L944 0H29Z"/>
<glyph unicode="&#x448;" glyph-name="uni0448" horiz-adv-x="875" d="M13 0L136 490H256L157 94H341l99 396H560L461 94H645l99 396H864L741 0H13Z"/>
<glyph unicode="&#x429;" glyph-name="uni0429" horiz-adv-x="1132" d="M907-153L945 0H29L199 682H329L185 106H448L592 682H722L578 106H841L984 682h130L971 106h112l-65-259H907Z"/>
<glyph unicode="&#x449;" glyph-name="uni0449" horiz-adv-x="904" d="M689-142L725 0H13L135 490H255L157 94H341l98 396H559L461 94H645l98 396H863L765 94h89L795-142H689Z"/>
<glyph unicode="&#x42a;" glyph-name="uni042A" horiz-adv-x="764" d="M279 106q45-1 139-1 80 0 125 28.5T604 226q16 63-15.5 92T475 347q-93 0-137-1L279 106ZM267 580H79l26 102H423L366 452q60 2 134 2 72 0 124-15.5t82.5-45 39-73.5T740 219Q711 107 626.5 52.5T395-2Q363-2 278-1T123 0L267 580Z"/>
<glyph unicode="&#x44a;" glyph-name="uni044A" horiz-adv-x="613" d="M186 396H56l23 94H330L294 350q40 1 74 1 59 0 101-13t67-38.5T568.5 238 565 157Q545 75 477 31.5T299-12Q182-12 87 3l99 393ZM228 87q35-7 80-7 56 0 89 22.5T440 167q11 45-12.5 68.5T349 259q-50 0-78-2L228 87Z"/>
<glyph unicode="&#x42b;" glyph-name="uni042B" horiz-adv-x="955" d="M185 105q44-1 129-1 80 0 125 29t60 92q9 32 6 54.5T487 317t-43 22.5T374 347q-85 0-129-1L185 105Zm14 577H329L271 451q60 2 125 2 72 0 124.5-15.5t83-45T642 319t-6-101Q607 106 522.5 52T291-2Q262-2 181.5-1T29 0L199 682Zm648 0H977L807 0H677L847 682Z"/>
<glyph unicode="&#x44b;" glyph-name="uni044B" horiz-adv-x="765" d="M136 490H256L220 350q37 1 70 1 58 0 99.5-13t66-38T487 238.5 483 157Q462 74 395.5 31T221-12q-54 0-110 4T14 3L136 490ZM155 87q36-7 74-7 55 0 86.5 22T357 167q23 92-86 92-27 0-42.5-0.5T197 257L155 87ZM511 0L634 490H754L631 0H511Z"/>
<glyph unicode="&#x4f8;" glyph-name="uni04F8" horiz-adv-x="955" d="M185 105q44-1 129-1 80 0 125 29t60 92q9 32 6 54.5T487 317t-43 22.5T374 347q-85 0-129-1L185 105Zm14 577H329L271 451q60 2 125 2 72 0 124.5-15.5t83-45T642 319t-6-101Q607 106 522.5 52T291-2Q262-2 181.5-1T29 0L199 682Zm648 0H977L807 0H677L847 682ZM662 746l33 133H818L784 746H662Zm-238 0l33 133H580L546 746H424Z"/>
<glyph unicode="&#x4f9;" glyph-name="uni04F9" horiz-adv-x="765" d="M136 490H256L220 350q37 1 70 1 58 0 99.5-13t66-38T487 238.5 483 157Q462 74 395.5 31T221-12q-54 0-110 4T14 3L136 490ZM155 87q36-7 74-7 55 0 86.5 22T357 167q23 92-86 92-27 0-42.5-0.5T197 257L155 87ZM511 0L634 490H754L631 0H511Zm-4 559l33 133H655L622 559H507Zm-204 0l33 133H451L418 559H303Z"/>
<glyph unicode="&#x42c;" glyph-name="uni042C" horiz-adv-x="670" d="M185 105q44-1 139-1 81 0 125.5 28.5T509 224q9 31 5.5 54t-19 38.5-44 23T381 347q-93 0-137-1L185 105Zm14 577H329L272 453q60 1 134 1 71 0 123.5-15.5t83-45.5 39-74.5T646 217Q617 105 533 51.5T302-2Q252-2 166-1T29 0L199 682Z"/>
<glyph unicode="&#x44c;" glyph-name="uni044C" horiz-adv-x="540" d="M136 490H256L220 350q39 1 75 1 58 0 100.5-13T463 299.5 495.5 238 492 157Q471 75 403.5 31.5T226-12Q108-12 14 3L136 490ZM155 87q35-7 79-7 56 0 89 22.5T366 167q11 45-12 68.5T276 259q-50 0-79-2L155 87Z"/>
<glyph unicode="&#x402;" glyph-name="uni0402" horiz-adv-x="761" d="M287 576H78l27 106H653L626 576H417L378 417q82 2 121 2 138 0 198-58.5T731 194Q706 94 634.5 40.5T458-13q-48 0-87 6l26 108q30-7 62-7 53 0 87.5 27T594 202q10 40-0.5 64t-41 35.5T469 313q-45 0-117-2L274 0H144L287 576Z"/>
<glyph unicode="&#x452;" glyph-name="uni0452" horiz-adv-x="590" d="M13 0L152 556H74l23 91h77l18 69H312l-17-69H411l-23-91H272l-8-33q-15-52-30-95h2q35 39 76.5 58T404 505q41 0 72.5-14t50-41.5 22-66.5T539 295L460-16q-17-69-43-109t-63-58-92-18q-35 0-56 7l23 92h38q21 0 34 9t23 31T346 8l63 252q12 48 14 68.5T422 364q-6 22-23.5 33.5T351 409q-22 0-44.5-8T268 380q-27-21-44.5-53.5T193 241L133 0H13Z"/>
<glyph unicode="&#x40b;" glyph-name="uni040B" horiz-adv-x="783" d="M287 576H78l27 106H653L626 576H417L373 399H500q139 0 189.5-57.5T710 162L670 0H540l36 147q20 82-5 114T462 293H347L274 0H144L287 576Z"/>
<glyph unicode="&#x45b;" glyph-name="uni045B" horiz-adv-x="590" d="M152 556H74l23 91h78l17 69H312l-17-69H411l-23-91H272l-8-32q-15-53-30-96h2q34 39 75.5 58T400 505q59 0 96.5-26t48-73.5T539 294L465 0H345l64 260q12 49 14 68.5T422 364q-6 22-23.5 33.5T351 409q-22 0-43.5-8T269 380q-27-21-45-54.5T193 241L133 0H13L152 556Z"/>
<glyph unicode="&#x4ba;" glyph-name="uni04BA" horiz-adv-x="688" d="M445 0l43 174q21 84-3.5 118T376 326H240L159 0H29L199 682H329L266 432H413q138 0 188.5-59.5T621 189L575 0H445Z"/>
<glyph unicode="&#x4bb;" glyph-name="uni04BB" horiz-adv-x="590" d="M190 706H310L264 524q-14-55-30-96h2q68 77 164 77 59 0 96.5-26t48-73.5T539 294L464 0H344l65 260q12 50 14 69.5T422 364q-6 22-23.5 33.5T351 409q-22 0-43.5-8T269 380q-27-21-45-54.5T193 241L133 0H13L190 706Z"/>
<glyph unicode="&#x42d;" glyph-name="uni042D" horiz-adv-x="692" d="M259 398H541q7 59-6 101t-47 64-86 22q-63 0-114.5-25.5T195 483l-83 65q66 76 144 113t172 37q100 0 163.5-45t82-128.5T664 330q-27-107-83.5-184.5T443 26 269-16Q164-16 98.5 30.5T9 166l124 42q14-55 51.5-83T282 97q54 0 100 23.5T462 189t55 107H233l26 102Z"/>
<glyph unicode="&#x44d;" glyph-name="uni044D" horiz-adv-x="530" d="M184 290H377q4 39-6 66.5t-33.5 42T278 413q-42 0-78.5-17.5T131 344L71 411q46 46 104 70t125 24q78 0 128-34t65-96-6-144q-19-77-62-132.5t-104-84T187-14Q112-14 62 18t-72 93L97 144q12-32 37.5-48.5T197 79t67.5 14.5 54 43T357 208H162l22 82Z"/>
<glyph unicode="&#x404;" glyph-name="uni0404" horiz-adv-x="697" d="M202 295q-9-60 5-105t49.5-69T345 97q68 0 123 29.5T564 213l77-74Q582 61 503.5 22.5T324-16q-99 0-165 46.5T72 161t5 190 84.5 184 143 120.5T483 698q97 0 161-42t90-120L617 482q-19 53-57.5 78.5T463 586q-50 0-95.5-23.5t-81-65.5T230 399H511L485 295H202Z"/>
<glyph unicode="&#x454;" glyph-name="uni0454" horiz-adv-x="524" d="M155 207q-6-40 3-69t31.5-44T248 79q46 0 84.5 17.5T403 151l61-62Q416 34 357 10T232-14q-77 0-127 33T39 112.5 42 252q21 80 63.5 136.5t105 86.5T350 505q70 0 117.5-31T534 386l-99-42q-14 36-38.5 52.5T331 413q-32 0-61.5-14.5t-53-42.5T177 289H371l-21-82H155Z"/>
<glyph unicode="&#x42e;" glyph-name="uni042E" horiz-adv-x="1068" d="M1041 333q-26-105-85-184.5T813.5 26.5 634-16q-88 0-150 39T395.5 134 383 301H234L159 0H29L199 682H329L260 407H410q34 91 92.5 157t135 100T800 698q96 0 161-46.5T1046.5 522 1041 333Zm-136 8q19 73 10 128.5T870.5 555 777 585q-56 0-106-29.5t-87-85T528 341q-18-75-8.5-130.5t44.5-84T656 98q58 0 108 30t86.5 85.5T905 341Z"/>
<glyph unicode="&#x44e;" glyph-name="uni044E" horiz-adv-x="826" d="M785 238q-19-79-62-136T618.5 15.5 484-14q-68 0-115 27T302 90.5 291 208H185L133 0H13L136 490H256L209 302H315q25 64 67 110t97.5 69.5T601 505q75 0 124-33.5t64.5-94T785 238Zm-125 7q12 48 7 84.5T640.5 386 583 406t-67.5-19.5-55.5-56T424 245t-6.5-86T445 103.5 502 85q36 0 67.5 19t55 55.5T660 245Z"/>
<glyph unicode="&#x42f;" glyph-name="uni042F" horiz-adv-x="703" d="M425 0l62 253H371L127 0H-38L229 268q-72 22-101.5 78.5T117 480q25 102 107 153t219 51q141-1 282-2L555 0H425ZM568 577q-57 1-142 1-74 0-117-25t-57-78q-7-28-3-50t18.5-37 41-23 64.5-8q97 0 141 2l54 218Z"/>
<glyph unicode="&#x44f;" glyph-name="uni044F" horiz-adv-x="575" d="M322 0l43 174H278L108 0H-41L158 194q-48 17-68.5 59T83 352q19 75 85 112.5T345 502t218-14L442 0H322ZM422 407q-43 8-86 8-58 0-88.5-18T208 341q-10-42 13-62.5T301 258q52 0 86 2l35 147Z"/>
<glyph unicode="`" glyph-name="grave" horiz-adv-x="356" d="M175 698H325l48-146H268L175 698Z"/>
<glyph unicode="&#xb4;" glyph-name="acute" horiz-adv-x="366" d="M138 552L258 698H420L254 552H138Z"/>
<glyph unicode="&#xa8;" glyph-name="dieresis" horiz-adv-x="460" d="M354 559l33 133H502L469 559H354Zm-204 0l33 133H298L265 559H150Z"/>
<glyph unicode="&#x2c9;" glyph-name="macron" horiz-adv-x="452" d="M464 572H153l24 97H489l-25-97Z"/>
<glyph unicode="&#xb8;" glyph-name="cedilla" horiz-adv-x="306" d="M-42-192q30 21 47 39t21 32q4 12-2.5 23.5T-4-73L62 5H162L120-45q19-17 25-34.5t1-36.5q-5-20-22.5-40T81-192H-42Z"/>
<glyph unicode="&#xaa;" glyph-name="ordfeminine" horiz-adv-x="512" d="M49 162l22 88H435l-22-88H49ZM406 537q-64 0-103.5-7T243 508t-27-41q-7-28 7-43t47-15q44 0 82 31.5T401 517l5 20Zm108 11q-20-76-31.5-127T467 341H370l15 54h-1q-24-32-63.5-49.5T232 328q-71 0-106.5 40T106 468q13 51 49.5 81.5T258 595t166 15l5 19q9 41-7 60t-58 19q-36 0-72-15t-78-47l-43 61q50 40 103.5 60.5T385 788q89 0 127-44.5T531 619l-17-71Z"/>
<glyph unicode="&#xba;" glyph-name="ordmasculine" horiz-adv-x="545" d="M49 162l22 88H478l-22-88H49ZM573 551q-26-105-98.5-164T300 328q-104 0-150 65T130 565q26 105 98.5 164T403 788q103 0 149.5-65T573 551h0Zm-110 7q16 65-4 104t-72 39q-51 0-90.5-38.5T240 558q-16-65 4.5-104T316 415q52 0 91.5 39T463 558h0Z"/>
<glyph unicode="!" glyph-name="exclam" horiz-adv-x="362" d="M117 213L224 706H370L232 213H117ZM51 0L88 148H228L191 0H51Z"/>
<glyph unicode="&#xa1;" glyph-name="exclamdown" horiz-adv-x="362" d="M278 397L170-96H24L162 397H278Zm65 213L306 462H166l37 148H343Z"/>
<glyph unicode="?" glyph-name="question" horiz-adv-x="631" d="M272 275q5 26 17.5 48.5t34 42 68 47T456 455t29 31.5T501 523q5 19 1 36.5T485.5 590 453 610t-45 7q-34 0-64.5-14t-52-39T262 507q-7-31-9-54H126q0 24 8 58 16 66 57 113t101.5 71.5T427 720q76 0 129-26.5T630 621t7-103q-9-35-26-63.5t-43.5-52T492 352t-64.5-39-25-24.5T389 261l-13-48H260l12 62ZM194 0l37 148H371L334 0H194Z"/>
<glyph unicode="&#xbf;" glyph-name="questiondown" horiz-adv-x="631" d="M391 335q-5-26-17.5-48.5t-34-42T272 198t-64-42-29-32T162 87q-5-19-0.5-36.5T178 20 210 0t46-7q34 0 64 14t51.5 38.5T401 103q6 23 9 54H537q1-25-8-58Q512 33 471.5-14t-101-71.5T236-110q-75 0-128.5 26.5T33-11 26 92q9 34 26 62.5t43.5 52 75.5 51T235.5 297t25 24.5T274 349l13 48H403l-12-62Zm78 275L432 462H292l37 148H469Z"/>
<glyph unicode="," glyph-name="comma" horiz-adv-x="292" d="M201 165L166 27Q147-46 125.5-85.5T70-151t-95-50l-19 67q37 19 56.5 36T44-58.5 65 0H11L52 165H201Z"/>
<glyph unicode=";" glyph-name="semicolon" horiz-adv-x="323" d="M112 330l40 160H295L255 330H112ZM213 160L179 26Q161-47 139.5-86T84-151t-96-50l-19 67Q8-114 27.5-97.5T58-59.5 78 0H29L69 160H213Z"/>
<glyph unicode=":" glyph-name="colon" horiz-adv-x="323" d="M112 330l40 160H295L256 330H112ZM29 0L69 160H213L173 0H29Z"/>
<glyph unicode="." glyph-name="period" horiz-adv-x="292" d="M11 0L53 165H202L160 0H11Z"/>
<glyph unicode="&#x2026;" glyph-name="ellipsis" horiz-adv-x="921" d="M641 0l42 165H831L789 0H641ZM326 0l42 165H517L474 0H326ZM11 0L53 165H202L160 0H11Z"/>
<glyph unicode="&#x2018;" glyph-name="quoteleft" horiz-adv-x="292" d="M132 483l33 131q16 65 37 101.5t55 62T350 826l19-68q-37-16-55.5-31.5t-29.5-35T267 642h53L280 483H132Z"/>
<glyph unicode="&#x2019;" glyph-name="quoteright" horiz-adv-x="292" d="M361 803L328 672q-17-65-39-102.5T233 507t-92-47l-19 66q33 13 52.5 28T206 589.5 226 644H173l40 159H361Z"/>
<glyph unicode="&#x201c;" glyph-name="quotedblleft" horiz-adv-x="502" d="M132 483l33 131q17 65 37.5 102.5T254 779t85 47l20-67q-35-17-53.5-32.5t-29.5-35T258 642h52L270 483H132Zm221 0l33 131q17 65 37.5 102.5t51 62.5T560 826l20-67q-35-17-54-32.5t-29.5-35T479 642h52L491 483H353Z"/>
<glyph unicode="&#x201d;" glyph-name="quotedblright" horiz-adv-x="502" d="M571 803L537 670q-16-62-37.5-101t-54-64.5T363 458l-20 68q30 11 48.5 25.5t31 36T445 644H393l40 159H571Zm-221 0L316 670q-15-62-37-101t-54.5-64.5T142 458l-20 68q30 11 48.5 25.5t31.5 36T224 644H172l40 159H350Z"/>
<glyph unicode="&#x201a;" glyph-name="quotesinglbase" horiz-adv-x="292" d="M200 159L167 28Q150-37 128-74.5T72-137t-92-47l-19 66q33 13 52.5 28T45-54.5 65 0H12L52 159H200Z"/>
<glyph unicode="&#x201e;" glyph-name="quotedblbase" horiz-adv-x="502" d="M410 159L376 26Q360-36 338.5-75t-54-64.5T202-186l-20 68q30 11 48.5 25.5t31 36T284 0H232l40 159H410Zm-221 0L155 26Q140-36 118-75T63.5-139.5-19-186l-20 68Q-9-107 9.5-92.5T41-56.5 63 0H11L51 159H189Z"/>
<glyph unicode="&#x2039;" glyph-name="guilsinglleft" horiz-adv-x="409" d="M184 36L76 285 297 522l90-51L222 274 289 82 184 36Z"/>
<glyph unicode="&#x203a;" glyph-name="guilsinglright" horiz-adv-x="409" d="M244 522L351 273 130 36 40 87 205 284 138 476l106 46Z"/>
<glyph unicode="&#xab;" glyph-name="guillemotleft" horiz-adv-x="666" d="M443 53L344 286 552 506l87-53L490 274 550 95 443 53ZM182 37L76 285 298 522l87-53L222 274 289 79 182 37Z"/>
<glyph unicode="&#xbb;" glyph-name="guillemotright" horiz-adv-x="666" d="M242 505l99-233L133 52 46 105 195 284 135 463l107 42Zm261 16L609 273 387 36 300 89 463 284 396 479l107 42Z"/>
<glyph unicode="/" glyph-name="slash" horiz-adv-x="433" d="M-148-152L463 778H595L-17-152H-148Z"/>
<glyph unicode="|" glyph-name="bar" horiz-adv-x="329" d="M0-176L250 820H369L119-176H0Z"/>
<glyph unicode="&#xa6;" glyph-name="brokenbar" horiz-adv-x="329" d="M0-176L103 230H222L119-176H0ZM148 414L250 820H369L267 414H148Z"/>
<glyph unicode="\" glyph-name="backslash" horiz-adv-x="433" d="M257-152L109 778H234L382-152H257Z"/>
<glyph unicode="&#x2010;" glyph-name="hyphen" horiz-adv-x="369" d="M34 221L63 337H353L324 221H34Z"/>
<glyph unicode="&#x2013;" glyph-name="endash" horiz-adv-x="650" d="M592 226H49L75 332H619L592 226Z"/>
<glyph unicode="&#x2014;" glyph-name="emdash" horiz-adv-x="977" d="M932 226H38L65 332H958L932 226Z"/>
<glyph unicode="_" glyph-name="underscore" horiz-adv-x="650" d="M538-204H-111l25 101H563L538-204Z"/>
<glyph unicode="&#x2022;" glyph-name="bullet" horiz-adv-x="427" d="M380 336q0-43-21-80t-58-59-79-22q-38 0-69 17t-49 48T86 308q0 45 21.5 82T166 448t78 21q38 0 69-17t49-48 18-68h0Z"/>
<glyph unicode="&#x2219;" glyph-name="periodcentered" horiz-adv-x="291" d="M73 245l38 154H258L220 245H73Z"/>
<glyph unicode="(" glyph-name="parenleft" horiz-adv-x="341" d="M106-176Q65-57 60.5 75T89 339q23 92 57 172t83 156T344 820H478q-68-80-120.5-162t-89-165.5T211 323Q178 190 182.5 65.5T229-176H106Z"/>
<glyph unicode=")" glyph-name="parenright" horiz-adv-x="341" d="M275 820q41-119 45-251.5T291 305q-23-93-57.5-173.5t-83-156T37-176H-97Q-30-97 22.5-15.5t89 165.5T170 321q33 133 28.5 257.5T152 820H275Z"/>
<glyph unicode="[" glyph-name="bracketleft" horiz-adv-x="392" d="M256-176H-15L233 820H506l-25-98H326L126-78H281l-25-98Z"/>
<glyph unicode="]" glyph-name="bracketright" horiz-adv-x="392" d="M-73-176l25 98H107L306 722H151l25 98H448L199-176H-73Z"/>
<glyph unicode="{" glyph-name="braceleft" horiz-adv-x="440" d="M62 370H93q36 0 52.5 10t28 32.5T196 481l38 149q17 69 45.5 110.5T353 801t114 19h87l-25-98H449q-31 0-49-10t-30-30.5T349 624L313 480q-12-50-28-81.5t-36.5-50T195 320l-1-1q28-10 40-28t12-50-12-81L198 21q-9-38-7-58.5T207-68t44-10h78l-25-98H228q-68 0-106 22T75-87.5 83 25l34 136q11 47 10.5 70t-13 33T67 274H38l24 96Z"/>
<glyph unicode="}" glyph-name="braceright" horiz-adv-x="440" d="M418 274H388q-36 0-53-10t-28.5-32.5T284 163L247 14Q229-55 200.5-96.5T127-157 13-176H-73l25 98H31q31 0 49 10t30 30.5T131 20l36 144q13 50 28.5 81.5t36.5 50T286 324v1q-27 9-39.5 27T234 401.5 247 484l35 139q10 38 7.5 58.5t-16 30.5T229 722H151l25 98h76q68 0 106-22t47.5-66.5T397 619L364 483q-12-49-11-72t14-32 46-9h29l-24-96Z"/>
<glyph unicode="*" glyph-name="asterisk" horiz-adv-x="507" d="M375 576l161 63 11-101L382 501l74-121-96-59L311 458 196 322l-76 62L255 505 110 542l55 97 131-63 28 161H431L375 576Z"/>
<glyph unicode="&#x2020;" glyph-name="dagger" horiz-adv-x="526" d="M167 98L271 514H109l25 98H296l43 172H459L416 612H578l-25-98H391L288 98H167Z"/>
<glyph unicode="&#x2021;" glyph-name="daggerdbl" horiz-adv-x="526" d="M485 240H323L279 64H158l45 176H41l25 99H228l43 175H109l25 98H296l43 172H459L416 612H578l-25-98H391L348 339H510l-25-99Z"/>
<glyph unicode="&#xa7;" glyph-name="section" horiz-adv-x="633" d="M464 265q8 33-14.5 55t-87 40.5T278 386q-32-18-54.5-44.5T194 288q-6-23 2.5-40.5T229 217t77.5-28.5T380 166q32 19 54.5 45.5T464 265h0ZM72 289q12 44 46 82.5T201 435q-18 19-24 51.5t3 66.5q13 52 46 88.5T311 697t120 19q61 0 113-18t83-49l-66-91q-31 29-68 44t-76 15q-31 0-55-7.5T322.5 587 302 551t3.5-36.5T336 487t97.5-35T543 403.5t44-60T586 264q-12-44-45-81.5T459 119q19-21 26-53T484 0q-13-52-48-88.5T348.5-144 229-163q-32 0-64 6t-60.5 16.5T53.5-115 18-82L85 9q32-35 74.5-54T244-64q32 0 56.5 7.5t40 22.5T361 2t-3.5 36.5-31 28-99 35.5-111 48-45 59.5T72 289h0Z"/>
<glyph unicode="&#xb6;" glyph-name="paragraph" horiz-adv-x="752" d="M439-192L631 576H530L338-192H222L324 215H299q-121 0-174.5 62.5T98 451q19 74 65 126t114 78.5T430 682H773L554-192H439Z"/>
<glyph unicode="^" glyph-name="asciicircum" horiz-adv-x="650" d="M475 347L444 455q-7 24-16.5 62T412 587h-2q-20-30-44.5-64.5T323 466L227 347H80L363 682H501L621 347H475Z"/>
<glyph unicode="~" glyph-name="asciitilde" horiz-adv-x="650" d="M66 224q1 65 22 112t60.5 71.5T244 432q40 0 72-15t63.5-50.5 44-43T449 316q18 0 30 11.5T497.5 362t7.5 58H613q-1-65-22-112t-61-71.5T435 212q-40 0-72 15t-63.5 50.5-44 43T230 328q-18 0-30-11.5T181.5 282 174 224H66Z"/>
<glyph unicode="&apos;" glyph-name="quotesingle" horiz-adv-x="272" d="M135 449l59 281H322L243 449H135Z"/>
<glyph unicode="&quot;" glyph-name="quotedbl" horiz-adv-x="479" d="M345 449l59 281H529L449 449H345Zm-211 0l60 281H319L239 449H134Z"/>
<glyph unicode="&amp;" glyph-name="ampersand" horiz-adv-x="789" d="M645-24Q613 3 583.5 28T531 73Q470 29 400.5 6.5T258-16q-83 0-140.5 26.5T37.5 87 32 205q15 60 59 104.5T217 389q-31 47-41 84.5t0 76.5q13 54 48 92t89 58 124 20q68 0 115-22.5t65-63 6-90.5q-9-38-33.5-69T525 418.5 407 363q28-30 62.5-63T546 229q28 35 48 77t31 89H746q-15-66-45.5-126T627 159q24-22 52.5-46T736 66L645-24ZM279 313q-53-26-81-54t-37-63q-13-53 18.5-82.5T282 84q45 0 89 14.5T454 140q-57 52-100 94.5T279 313ZM496 546q8 34-14 54t-66 20q-45 0-75-20t-39-55q-6-27 3-52.5T340 434q60 21 88 37t44.5 34.5T496 546h0Z"/>
<glyph unicode="@" glyph-name="at" horiz-adv-x="1039" d="M1002 336q-6-87-41.5-155t-95-104.5T731 40q-58 0-89 18t-39 56q-29-35-71-54.5T445 40q-58 0-97 21t-56.5 63T278 227q6 72 38.5 133.5t86 95T525 489q42 0 72.5-14.5T644 431h2l13 49H775L715 247q-11-46-11.5-70.5t10-35T747 131q41 0 72.5 24.5t51 70T895 329q7 90-28 159T760 593.5 586 630q-114 0-207-50T229 441 165 247q-8-103 29.5-182T309-57.5 491-101q61 0 121.5 9T729-66l8-87q-57-18-123-27t-135-9q-102 0-183.5 31t-138 89T75.5 69 57 242q9 133 82.5 242.5T333.5 656 597 718q126 0 222-49.5T962.5 532 1002 336ZM609 300q3 49-16.5 73.5T530 398q-36 0-64-20.5t-45.5-59T400 235q-3-36 5-59t25.5-34T474 131q38 0 66.5 21.5t46.5 62T609 300Z"/>
<glyph unicode="&#xa9;" glyph-name="copyright" horiz-adv-x="935" d="M670 244q-38-60-96.5-92.5T444 119q-65 0-110 28.5t-60 81T275 349q17 68 54.5 117t92 74T542 565q70 0 118-34.5T716 437L612 404q-12 36-32 51.5T525 471q-31 0-58-15t-46.5-44.5T391 341q-10-39-4-69t25.5-45T463 212q38 0 68 20t59 63l80-51Zm121 96q7 90-26 163T665.5 616.5 510 657q-91 0-163-40T232 504 182 340t26.5-163.5T308 64.5 462 25q90 0 162.5 40t116 112T791 340h0Zm109 4q-9-116-69.5-211T670.5-15.5 453-69Q336-69 246-17.5t-136 145T72 338q9 115 69 210.5T300 697t218 53 209.5-52T863 552.5 900 344h0Z"/>
<glyph unicode="&#xae;" glyph-name="registered" horiz-adv-x="724" d="M721 529q-6-79-48.5-146T561 278 411 240 267 277 171.5 380 145 525t48.5 146T305 776t150 38q82 0 145-38t94.5-103.5T721 529h0Zm-74-2q5 63-18.5 115t-70 81T450 752 336.5 722 254 640.5 219 527q-5-64 19-116t71-80.5T416 302q62 0 113.5 30T612 413.5 647 527h0ZM351 678q71 1 126 1 66 0 95.5-26.5T590 578q-7-29-28-49.5T507 497l42-110-86-1L430 488H382L357 387H278l73 291Zm46-131q16-1 51-1 27 0 41.5 9T508 582q5 19-4.5 28T466 619H415l-18-72Z"/>
<glyph unicode="&#x2122;" glyph-name="trademark" horiz-adv-x="978" d="M514 682H668l22-186q2-16 3-38.5t1-45.5h2q11 21 23.5 43.5T743 496L859 682h157L925 313H831l33 129q17 71 26.5 105.5T908 609h-3q-12-22-26-45.5T849 515L721 313H623L595 515q-4 40-6 59.5T586 609h-2q-6-24-16-66T543 442L511 313H420l94 369ZM226 602H111l20 80H461l-21-80H326L253 313H154l72 289Z"/>
<glyph unicode="&#xb0;" glyph-name="degree" horiz-adv-x="436" d="M488 610q-5-71-58-115T296 451 170.5 493.5 131 608q5 70 57.5 113.5T322 765t126-42.5T488 610h0Zm-104-1q2 34-16 54t-53 20q-36 0-57-20t-23-54q-2-36 16-56t54-20q35 0 55.5 20.5T384 609h0Z"/>
<glyph unicode="&#xa4;" glyph-name="currency" horiz-adv-x="662" d="M451 322q14 51-6 82.5T377 436t-81.5-30.5T248 322q-12-52 7.5-83T322 208q49 0 82.5 30.5T451 322h0Zm108-5q-16-62-54-107l73-92L490 50 419 152q-52-27-117-27-63 0-102 25L79 50 22 129l118 92q-14 42 1 106 16 63 54 107l-72 93 88 68 70-103q54 27 116 27 64 0 102-25L620 596l58-80L558 423q16-45 1-106h0Z"/>
<glyph unicode="&#x20ac;" glyph-name="Euro" horiz-adv-x="720" d="M452 218H253q3-42 19-70t44.5-42T386 92q46 0 93 21.5T568 175l57-85Q567 36 502.5 10T365-16q-74 0-129 27.5T150.5 92 117 218H21l22 86h79q6 37 18 74H62l21 86h89q35 75 87.5 127.5T380 671t148 27q71 0 127.5-27T743 596l-99-74q-20 34-54.5 52T511 592q-39 0-75-14.5T369.5 534 315 464H513l-21-86H275q-11-36-19-74H473l-21-86Z"/>
<glyph unicode="$" glyph-name="dollar" horiz-adv-x="676" d="M190-104L220 12Q160 22 111.5 47.5T32 110l69 94q58-52 107.5-73.5T315 109q38 0 69.5 11.5T436 152t27 45q5 24-3 40.5T428 266 317.5 297 192 341.5 141.5 406t2.5 93q12 50 45 88t83.5 61T386 676l28 115H530L499 672q45-7 84.5-25.5T653 601l-68-98q-43 37-87.5 54.5T405 575q-34 0-60.5-9t-44-26.5T277 500q-5-23 4-39.5t32.5-28 109.5-30T548.5 358t51-66T597 197q-13-52-49-93T456 38 333 7L306-104H190Z"/>
<glyph unicode="&#xa2;" glyph-name="cent" horiz-adv-x="566" d="M466 693L437 581q52-12 84-46.5T563 446L450 411q-8 40-29.5 58.5T360 488q-53 0-93-39T211 343q-17-68 4-107t75-39q42 0 75 21.5T432 287l81-54q-35-53-83.5-86T318 102L291-10H182l30 113q-84 13-118.5 81T85 354q25 96 90 156.5T332 584l26 109H466Z"/>
<glyph unicode="&#xa3;" glyph-name="sterling" horiz-adv-x="650" d="M531 0H6L31 99q71 36 104 72t36 104H66l25 97h79q-8 160 67.5 243T451 698q93 0 146.5-42.5T660 535L541 489q-9 53-33 77.5T438 591q-59 0-98.5-47T307 372H489l-24-97H307q-3-62-27-99.5T209 110l-1-3q95 4 187 5H558L531 0Z"/>
<glyph unicode="&#xa5;" glyph-name="yen" horiz-adv-x="650" d="M202 0l20 84H59l22 87H244l18 70H99l22 87H283l5 20L131 682H278l97-223L579 682H739L415 348l-5-20H572l-21-87H389l-18-70H533L511 84H349L328 0H202Z"/>
<glyph unicode="&#x20b4;" glyph-name="uni20B4" horiz-adv-x="650" d="M449 471q11 10 18.5 21.5T478 516q7 25 0 44t-27.5 29T398 599q-39 0-78.5-15.5T244 539l-29 92q47 32 103 49.5T431 698q68 0 113.5-23t63-65 4.5-94q-4-11-10-23.5T588 471h78l-22-86H508q-26-19-63-40t-64-36H626l-22-86H260q-14-12-22-24t-12-26q-7-30-1-49.5T251 94t55-10q46 0 92.5 17.5T488 155l32-91Q470 25 405 4.5T271-16Q203-16 158 6T96 71.5 93 174q4 14 10 26.5T118 223H37l22 86H206q28 19 73.5 43.5T338 385H77l22 86H449Z"/>
<glyph unicode="&#x20b8;" glyph-name="uni20B8" horiz-adv-x="650" d="M653 407H432L330 0H200L302 407H80l25 100H678L653 407Zm68 275L696 582H123l26 100H721Z"/>
<glyph unicode="&#xe3f;" glyph-name="uni0E3F" horiz-adv-x="650" d="M174-108L200-2Q110-1 19 0L189 682q46 0 182 2l28 107H512L484 680q66-8 95.5-21.5T629 619q16-21 21-53t-3-65q-14-57-50-92.5T502 356q38-9 62-32t31.5-58T592 188q-12-47-35-81.5t-57-57T420.5 15 314 0L287-108H174Zm0 209q42-1 114-1 38 0 66.5 5.5t50 17.5T440 153.5 461 198q6 28 1.5 47T443 276t-40 17-65 5H222L174 101Zm74 295H354q45 0 72 7t47 24q15 12 25 28t15 35 3.5 34T506 550q-13 18-42 25t-84 7q-43 0-87-1L248 396Z"/>
<glyph unicode="&#x20ae;" glyph-name="uni20AE" horiz-adv-x="650" d="M302 409l42 167H113l26 106H731L705 576H474L439 438l179 39-22-89L417 349l-19-75 178 39-22-89L376 185 330 0H200l39 156L60 117l22 89 179 38 19 76L101 281l22 89 179 39Z"/>
<glyph unicode="&#x20ba;" glyph-name="uni20BA" horiz-adv-x="650" d="M201 461l56 221H387L340 494l222 53-22-85L318 408l-19-77 222 53-22-85L277 245 242 104q16-1 27-1 56 0 104.5 7T467 131.5 558 170L528 52Q468 23 395.5 8.5T233-6q-35 0-67.5 1.5T87 0l53 212L33 186l22 87 106 25 19 76L73 349l23 87 105 25Z"/>
<glyph unicode="&#x20bd;" glyph-name="uni20BD" horiz-adv-x="650" d="M68 0L94 107H10l22 86h84l20 81H52l23 90h84l79 318q122 1 219 2 88 0 143.5-25.5t75-73.5T678 469q-17-65-56.5-108.5T519 295.5 365 274q-67 0-99 1l-20-82H460l-21-86H224L198 0H68ZM543 476q9 37 0.5 62.5T509 577t-71 13q-61 0-94-1L289 365q36-1 95-1 43 0 75.5 13T513 415t30 61Z"/>
<glyph unicode="&#x2116;" glyph-name="uni2116" horiz-adv-x="1187" d="M976 331q-43 0-76 13t-53.5 39T820 445t4 77q20 80 83 128t148 48q44 0 77.5-14t53.5-40.5 25-61.5-4-74q-20-80-83-128.5T976 331Zm14 82q39 0 68 27.5t41 74.5-4 74.5T1040 617t-67.5-26.5T931 515q-12-48 4-75t55-27ZM760 193l22 88h350l-22-88H760ZM461 0L332 366q-36 98-52 169h-3q-20-108-72-317L151 0H29L199 682H359L482 336q21-62 52-170h2q27 138 71 316l50 200H780L609 0H461Z"/>
<glyph unicode="#" glyph-name="numbersign" horiz-adv-x="700" d="M336 682H445L373 520H535l73 162H717L645 520h96l-24-97H602L529 259h96l-24-97H486L414 0H304l72 162H214L142 0H33l72 162H9l24 97H147l73 164H125l24 97H264l72 162ZM257 259H419l73 164H330L257 259Z"/>
<glyph unicode="0" glyph-name="zero" horiz-adv-x="697" d="M660 331q-28-112-79.5-189.5T455.5 24 290-16q-91 0-146.5 44t-70 127.5T88 351q27 112 79 189.5T292 658t165 40 147.5-44T674 526.5 660 331h0Zm-135 9q31 126 9.5 187.5T436 589q-76 0-129.5-61.5T222 342q-31-125-9-187t98-62q77 0 130 61.5T525 340h0Z"/>
<glyph unicode="1" glyph-name="one" horiz-adv-x="451" d="M290 523q-39-24-83-35T105 477l26 105q55 0 95.5 10.5t70 32.5T348 684H465L295 0H159L290 523Z"/>
<glyph unicode="2" glyph-name="two" horiz-adv-x="624" d="M514 0H-15L13 115q90 56 158 99.5T288.5 292 372 352t55.5 48 33 42.5T478 485q8 35 0.5 59.5t-30.5 37T390 594q-34 0-63-14t-49-38.5T251 487q-4-17-6.5-35T242 412H114q-2 15 0.5 37.5T121 493q16 62 56 108.5T277.5 673 412 698q77 0 128-27.5T610.5 593 614 481q-7-28-18-52.5T566 379t-48.5-51T444 270 340 199.5 199 114l-1-4q92 3 200 3H542L514 0Z"/>
<glyph unicode="3" glyph-name="three" horiz-adv-x="643" d="M160 215q-5-68 23.5-99T279 85q57 0 97 28.5T429 192q13 53-16.5 79.5T312 298H237l26 98h58q45 0 75.5 9T449 432q17 14 27.5 31T492 502q11 44-14 70t-77 26q-57 0-98-29t-67-86L118 514q39 90 116.5 137T420 698q76 0 128-25t73-69 7-99q-14-58-54-96.5T471 351v-2q59-14 85.5-56.5T568 189q-17-66-58.5-112T405.5 7.5 262-16Q135-16 74.5 40.5T27 203l133 12Z"/>
<glyph unicode="4" glyph-name="four" horiz-adv-x="649" d="M309 0l41 163H16L43 270 414 682H608L505 266H615L589 163H479L438 0H309ZM416 426q16 64 43 157h-4L167 264q53 1 97.5 1.5T367 266h9l40 160Z"/>
<glyph unicode="5" glyph-name="five" horiz-adv-x="624" d="M617 578H296L236 407h2q32 27 70.5 40T394 460q70 0 117-31t62.5-85.5T572 219q-19-73-63-126.5t-109.5-81T254-16Q150-16 88.5 31T22 161l127 29q8-51 38.5-78T269 85q39 0 73 16.5T400.5 150 436 224q15 61-11.5 99T340 361q-40 0-74.5-18.5T203 290H86L220 682H643L617 578Z"/>
<glyph unicode="6" glyph-name="six" horiz-adv-x="648" d="M536 513q-7 32-20 50.5T482.5 590 430 598q-73 0-124-62.5T217 337q72 93 186 93 76 0 123.5-26.5t63-76T588 211 527.5 92t-108-80T278-16q-89 0-142.5 42t-67 122T83 338q45 181 136.5 270.5T450 698q96 0 148-38t65-116L536 513ZM297 84q39 0 70 15t53 44.5T452 214q14 57-9.5 88T363 333q-53 0-95-31.5T210 211q-15-57 9.5-92T297 84h0Z"/>
<glyph unicode="7" glyph-name="seven" horiz-adv-x="610" d="M103 0q24 75 60 146.5t84.5 142T358 430 498 576H132l26 106H674L648 577q-82-76-146-148T389 286.5 305.5 145 250 0H103Z"/>
<glyph unicode="8" glyph-name="eight" horiz-adv-x="664" d="M521 498q12 46-15.5 73T421 598q-58 0-98.5-27T270 498q-11-45 16-72t85-27q57 0 98 27t52 72h0ZM462 193q12 50-18.5 78.5T346 300q-66 0-110.5-28.5T178 193t17.5-79T293 85q66 0 111 29t58 79h0Zm134-10q-15-64-58.5-109T427 6.5 274-16 129.5 10 48 84 41 194q15 60 57.5 102T209 358l1 2q-44 18-63.5 60T140 513q13 56 53.5 98T297 675.5 439 698t133.5-25.5T649 601t7-104q-13-51-50-88.5T512 352l-1-3q55-19 77.5-62.5T596 183h0Z"/>
<glyph unicode="9" glyph-name="nine" horiz-adv-x="648" d="M155 172q7-32 20-51t35-28 58-9q73 0 124 61.5T480 342q-64-90-186-90-75 0-122 26.5T109 355t1 116q17 68 61.5 120.5T280 671t140 27q88 0 141.5-43t67-122.5T615 344Q570 163 478 73.5T247-16Q149-16 93.5 23.5T28 141l127 31ZM401 598q-39 0-70-15t-53-44.5T246 468q-14-55 9.5-87T335 349q57 0 98 33t55 89q15 57-10 92t-77 35h0Z"/>
<glyph unicode="&#x2070;" glyph-name="zero.superior" horiz-adv-x="534" d="M552 553q-27-108-94-166.5T292 328q-98 0-138.5 63T140 563t94 167 165 58q99 0 139.5-63T552 553h0Zm-116 5q17 67 2.5 102T380 695t-76-35T255 558q-16-67-2-102t59-35q44 0 76 35t48 102h0Z"/>
<glyph unicode="&#xb9;" glyph-name="onesuperior" horiz-adv-x="374" d="M194 338l76 306q-21-15-54.5-22.5T139 614l23 93q56 0 96 18.5T316 779H423L314 338H194Z"/>
<glyph unicode="&#xb2;" glyph-name="twosuperior" horiz-adv-x="525" d="M480 338H96l27 106q89 42 145 71t88.5 50.5 46.5 39T422 642q8 28-5.5 44.5T370 703q-31 0-51.5-14.5T291 646q-3-11-4.5-22T285 601H173q-2 8-0.5 21.5T177 650q17 68 72 103t141 35q91 0 133-40.5T548 638q-8-31-27-57t-52-50.5T387 482 272 431v-3q81 2 148 2h84l-24-92Z"/>
<glyph unicode="&#xb3;" glyph-name="threesuperior" horiz-adv-x="523" d="M228 478q-2-37 15.5-53.5T300 408q34 0 56.5 15.5T386 466q7 30-10 44t-59 14H262l18 74h44q29 0 46 4.5T400 617q8 7 14.5 17t9.5 22q6 24-7.5 38.5T372 709q-35 0-59-14t-40-44L170 676q27 55 82.5 83.5T390 788q87 0 130.5-35T550 659q-9-35-34.5-58.5T448 566v-2q42-11 58.5-38.5T512 455q-15-60-74.5-93.5T286 328 149.5 364.5 114 469l114 9Z"/>
<glyph unicode="&#x2074;" glyph-name="four.superior" horiz-adv-x="518" d="M307 338l21 86H90l24 99L358 778H534L469 514h73l-22-90H446l-21-86H307ZM220 511q32 2 68.5 2.5T350 514l24 96q13 49 23 83h-3L220 511Z"/>
<glyph unicode="&#x2081;" glyph-name="uni2081" horiz-adv-x="374" d="M85-96l76 306q-21-15-54.5-22.5T30 180l23 93q56 0 96 18.5T207 345H314L205-96H85Z"/>
<glyph unicode="&#x2082;" glyph-name="uni2082" horiz-adv-x="525" d="M371-96H-13L14 10q89 42 145 71t88.5 50.5 46.5 39T313 208q8 28-5.5 44.5T261 269q-31 0-51.5-14.5T182 212q-3-11-4.5-22T176 167H64q-2 8-0.5 21.5T68 216q17 68 72 103t141 35q91 0 133-40.5T439 204q-8-31-27-57T360 96.5 278 48 163-3V-6q81 2 148 2h84L371-96Z"/>
<glyph unicode="&#x2083;" glyph-name="uni2083" horiz-adv-x="523" d="M119 44Q117 7 134.5-9.5T191-26q34 0 56.5 15.5T277 32q7 30-10 44T208 90H153l18 74h44q29 0 46 4.5T291 183q8 7 14.5 17t9.5 22q6 24-7.5 38.5T263 275q-35 0-59-14t-40-44L61 242q27 55 82.5 83.5T281 354q87 0 130.5-35T441 225q-9-35-34.5-58.5T339 132v-2q42-11 58.5-38.5T403 21q-15-60-74.5-93.5T177-106 40.5-69.5 5 35l114 9Z"/>
<glyph unicode="&#x2084;" glyph-name="uni2084" horiz-adv-x="518" d="M198-96l21 86H-19L5 89 249 344H425L360 80h73L411-10H337L316-96H198ZM111 77q32 2 68.5 2.5T241 80l24 96q13 49 23 83h-3L111 77Z"/>
<glyph unicode="&#x2044;" glyph-name="fraction" horiz-adv-x="405" d="M676 778L-86-96H-215L547 778H676Z"/>
<glyph unicode="&#xbd;" glyph-name="onehalf" horiz-adv-x="1004" d="M914 778L152-96H23L785 778H914ZM194 338l76 306q-21-15-54.5-22.5T139 614l23 93q56 0 96 18.5T316 779H423L314 338H194ZM851-96H467L494 10q89 42 145 71t88.5 50.5 46.5 39T793 208q8 28-5.5 44.5T741 269q-31 0-51.5-14.5T662 212q-3-11-4.5-22T656 167H544q-2 8-0.5 21.5T548 216q17 68 72 103t141 35q91 0 133-40.5T919 204q-8-31-27-57T840 96.5 758 48 643-3V-6q81 2 148 2h84L851-96Z"/>
<glyph unicode="&#xbc;" glyph-name="onequarter" horiz-adv-x="969" d="M914 778L152-96H23L785 778H914ZM194 338l76 306q-21-15-54.5-22.5T139 614l23 93q56 0 96 18.5T316 779H423L314 338H194ZM649-96l21 86H432l24 99L700 344H876L811 80h73L862-10H788L767-96H649ZM562 77q32 2 68.5 2.5T692 80l24 96q13 49 23 83h-3L562 77Z"/>
<glyph unicode="&#xbe;" glyph-name="threequarters" horiz-adv-x="1097" d="M1043 778L281-96H152L914 778h129ZM778-96l21 86H561l24 99L829 344h176L940 80h73L991-10H917L896-96H778ZM691 77q32 2 68.5 2.5T821 80l24 96q13 49 23 83h-3L691 77ZM228 478q-2-37 15.5-53.5T300 408q34 0 56.5 15.5T386 466q7 30-10 44t-59 14H262l18 74h44q29 0 46 4.5T400 617q8 7 14.5 17t9.5 22q6 24-7.5 38.5T372 709q-35 0-59-14t-40-44L170 676q27 55 82.5 83.5T390 788q87 0 130.5-35T550 659q-9-35-34.5-58.5T448 566v-2q42-11 58.5-38.5T512 455q-15-60-74.5-93.5T286 328 149.5 364.5 114 469l114 9Z"/>
<glyph unicode="%" glyph-name="percent" horiz-adv-x="1121" d="M1031 778L269-96H140L902 778h129Zm1-659Q1005 11 938-47.5T772-106q-98 0-138.5 63T620 129t94 167 165 58q99 0 139.5-63T1032 119h0Zm-116 5q17 67 2.5 102T860 261t-76-35T735 124q-16-67-2-102t59-35q44 0 76 35t48 102h0ZM552 553q-27-108-94-166.5T292 328q-98 0-138.5 63T140 563t94 167 165 58q99 0 139.5-63T552 553h0Zm-116 5q17 67 2.5 102T380 695t-76-35T255 558q-16-67-2-102t59-35q44 0 76 35t48 102h0Z"/>
<glyph unicode="&#x2030;" glyph-name="perthousand" horiz-adv-x="1621" d="M1031 778L269-96H140L902 778h129Zm1-659Q1005 11 938-47.5T772-106q-98 0-138.5 63T620 129t94 167 165 58q99 0 139.5-63T1032 119h0Zm-116 5q17 67 2.5 102T860 261t-76-35T735 124q-16-67-2-102t59-35q44 0 76 35t48 102h0Zm615-5q-27-108-94-166.5T1271-106q-98 0-138.5 63T1119 129t94 167 165 58q99 0 139.5-63T1531 119h0Zm-116 5q17 67 2.5 102T1359 261t-76-35-49-102q-16-67-2-102t59-35q44 0 76 35t48 102h0ZM552 553q-27-108-94-166.5T292 328q-98 0-138.5 63T140 563t94 167 165 58q99 0 139.5-63T552 553h0Zm-116 5q17 67 2.5 102T380 695t-76-35T255 558q-16-67-2-102t59-35q44 0 76 35t48 102h0Z"/>
<glyph unicode="+" glyph-name="plus" horiz-adv-x="650" d="M219 51l56 221H61L86 372H300l54 219H471L416 372H629L604 272H391L336 51H219Z"/>
<glyph unicode="&#x2212;" glyph-name="minus" horiz-adv-x="650" d="M604 272H60L86 372H630L604 272Z"/>
<glyph unicode="=" glyph-name="equal" horiz-adv-x="650" d="M570 173H46l26 99H596l-26-99Zm49 199H95l26 99H645l-26-99Z"/>
<glyph unicode="&#x2260;" glyph-name="notequal" horiz-adv-x="650" d="M63 24L174 173H46l26 99H247l73 100H96l25 99H394L497 613H621L516 471H645l-26-99H442L368 272H596l-26-99H295L186 24H63Z"/>
<glyph unicode="&#x2248;" glyph-name="approxequal" horiz-adv-x="650" d="M469 341q-29 0-55 7t-62 27-54 25.5T261 406q-25 0-51-12.5T151 352L93 419q19 21 41 38.5T179 487t46.5 18 46.5 6q29 0 54.5-7t62-27T443 451.5t36-5.5q25 0 50.5 12.5T589 501l59-68q-41-44-87.5-68T469 341h0ZM417 133q-29 0-54.5 7T301 167t-54 25.5T210 198q-26 0-51.5-12.5T100 144L41 211q19 21 41 38t45 29 46.5 18.5T220 303q29 0 55-7t62-27 54-25.5 37-5.5q25 0 50.5 12.5T538 292l58-67q-41-44-87.5-68T417 133h0Z"/>
<glyph unicode="&lt;" glyph-name="less" horiz-adv-x="650" d="M542 65L69 265 98 379 671 578 640 453 378 364q-39-13-80-25t-79-21l-1-2q34-11 74.5-25T366 264l206-84L542 65Z"/>
<glyph unicode="&gt;" glyph-name="greater" horiz-adv-x="650" d="M148 578L621 379 592 264 19 65 50 191l262 88q39 13 80 25t79 22l1 2q-34 10-74.5 24T324 379L118 464l30 114Z"/>
<glyph unicode="&#xb1;" glyph-name="plusminus" horiz-adv-x="650" d="M527 0H3L28 100H552L527 0ZM252 184l51 200H99l25 100H328l48 198H494L444 484H648L623 384H420L369 184H252Z"/>
<glyph unicode="&#x2264;" glyph-name="lessequal" horiz-adv-x="650" d="M571 176L97 376l29 114L699 689 668 564 407 475q-39-12-84.5-25.5T248 429l-1-2q28-8 71.5-23.5T394 375l207-84L571 176ZM527 0H3L28 100H551L527 0Z"/>
<glyph unicode="&#x2265;" glyph-name="greaterequal" horiz-adv-x="650" d="M175 689L648 489 620 375 47 176 77 301l262 89q36 12 81.5 25T498 436l1 2q-28 9-72.5 24.5T352 490L145 574l30 115ZM527 0H3L27 100H551L527 0Z"/>
<glyph unicode="&#xac;" glyph-name="logicalnot" horiz-adv-x="650" d="M418 77l50 195H61L86 372H609L536 77H418Z"/>
<glyph unicode="&#x221e;" glyph-name="infinity" horiz-adv-x="1009" d="M238 107q-65 0-110.5 29t-62 79T64 326q17 65 55.5 113T215 512t124 25q64 0 113-31t92-104q81 73 143.5 104T812 537q65 0 110.5-29t62-78.5T985 319q-16-65-54.5-113t-95-73.5T710 107q-65 0-113.5 30.5T504 241q-80-73-142.5-103.5T238 107h0Zm486 98q32 0 60 15t47 41.5T858 322q14 54-5 85.5T786 439q-38 0-81.5-25T590 321q36-67 66-91.5T724 205h0Zm-461 0q39 0 82.5 25.5T459 323q-36 67-66 91.5T325 439q-31 0-58-14t-47-41-29-62-3.5-61.5 24.5-41T263 205h0Z"/>
<glyph unicode="&#x2202;" glyph-name="partialdiff" horiz-adv-x="603" d="M227-14Q113-14 63 59T42 250Q72 367 150 433.5T338 500q52 0 90.5-22.5T480 419h1q0 25 0 58t-5.5 54.5T459 569q-15 21-39 30.5T362 609q-63 0-133-19l17 101q65 16 139 16 142 0 189-95.5T574 327Q531 155 445.5 70.5T227-14h0Zm23 99q57 0 101 43.5T413 244q19 72-4 115t-79 43q-57 0-100-43T168 243q-18-73 4-115.5T250 85h0Z"/>
<glyph unicode="&#x222b;" glyph-name="integral" horiz-adv-x="367" d="M-14-204q-23 0-47 4t-41 10l24 97q18-6 34.5-9.5T-12-106q26 0 40 13T50-48L224 649q17 70 63.5 104.5T407 788q24 0 48.5-3.5T496 774l-25-98q-14 7-32 10.5T405 690q-25 0-40.5-14T341 631L167-63q-19-72-63-106.5T-14-204h0Z"/>
<glyph unicode="&#x221a;" glyph-name="radical" horiz-adv-x="711" d="M157-96L120 244H16L41 344H244l11-127q4-55 6.5-100.5T263 32h3q15 32 43 82.5T391 256L693 778H836L306-96H157Z"/>
<glyph unicode="&#x220f;" glyph-name="product" horiz-adv-x="840" d="M471-192L686 667H367L152-192H22L237 667H112l28 111H968L941 667H816L601-192H471Z"/>
<glyph unicode="&#x2211;" glyph-name="summation" horiz-adv-x="684" d="M-37-83L333 310 165 672l26 106H751L725 671H537q-60 0-111.5 0T325 672L494 307 124-85q21 0 100.5 0.5T361-84H555L528-192H-65L-37-83Z"/>
<glyph unicode="&#x25ca;" glyph-name="lozenge" horiz-adv-x="657" d="M292 110q16 23 60 75.5T495 351q-43 115-58 156.5T416 572h-2q-17-25-61.5-78T212 331q45-118 59-158.5T290 110h2ZM195 0L66 340 365 682H510L641 342 341 0H195Z"/>
<glyph unicode="&#x2113;" glyph-name="afii61289" horiz-adv-x="495" d="M212-14q-67 0-100.5 37T74 135L24 114 5 211l74 30q8 54 26 123 32 127 69.5 204T260 680.5 379 716q54 0 85.5-25.5t39-74.5T495 502q-20-78-58-135.5t-98.5-103T191 180q-4-50 8.5-71.5T243 87q24 0 48 8.5T344 123l32-77Q338 17 295 1.5T212-14h0ZM373 509q10 40 11 64t-6 34.5T355 618q-24 0-44.5-27.5T269 506 226 359q-10-37-15-63 42 23 74 53t53.5 69T373 509h0Z"/>
<glyph unicode="&#x212e;" glyph-name="estimated" horiz-adv-x="939" d="M404-16Q214-16 124 81T74 339 256 599t330 99q134 0 220-50T916.5 507.5 902 304H280L249 180q-4-14-2.5-23t9.5-17q27-27 72.5-41T433 85q73 0 140 23t115 65H851Q781 86 660.5 35T404-16h0ZM712 394l29 112q3 14 2 21.5T736 540q-28 28-73 42.5T558 597q-58 0-110.5-14.5T352 540q-8-6-13-13.5T330 503L302 394H712Z"/>
<glyph unicode="&#xf8ff;" glyph-name="uniF8FF" horiz-adv-x="825" d="M526 304H374v76H526v76H374v76H602V152H526V304ZM222 532h76V228H450V152H222V532ZM70 684H754V0H70V684ZM146 76H678V608H146V76Z"/>
</font>
</defs>
</svg>
